<svg width="269" height="23" viewBox="0 0 269 23" fill="none" xmlns="http://www.w3.org/2000/svg">
<g clip-path="url(#clip0_18_124)">
<path d="M141.982 13.2984C130.74 9.21172 118.787 7.41188 106.86 7.17896C94.9075 6.87041 83.0125 8.21651 71.0823 9.55052C59.1585 10.8543 47.2795 12.4393 35.4196 14.1938C23.5694 15.9876 11.7735 18.1051 -0.00320435 20.4313C5.76524 18.8159 11.5976 17.4245 17.446 16.0663C23.3104 14.7928 29.2035 13.6221 35.1127 12.5271C46.9373 10.3763 58.8579 8.72471 70.8105 7.37255C76.7932 6.74336 82.7567 6.08393 88.7969 5.67556C94.8244 5.30651 100.884 5.14317 106.927 5.49708C112.964 5.83285 118.995 6.49532 124.898 7.74765C130.778 9.0635 136.559 10.824 141.982 13.2954V13.2984Z" fill="#D8B067"/>
<path d="M130.263 9.47176C128.581 9.19648 126.998 8.69737 125.467 8.1075C123.926 7.52974 122.448 6.82492 121.016 6.04449C119.59 5.25498 118.208 4.38379 116.92 3.38556C115.625 2.39942 114.397 1.30742 113.39 0.00366211C114.985 0.581428 116.453 1.24692 117.905 1.9487C119.363 2.63839 120.779 3.37648 122.183 4.14784C123.58 4.92223 124.968 5.72687 126.314 6.6041C127.67 7.47226 129 8.3858 130.26 9.47478L130.263 9.47176Z" fill="#D8B067"/>
<path d="M105.095 6.27759C103.026 7.29397 100.951 8.17121 98.8757 9.04239L92.6724 11.6227C88.5155 13.3076 84.4514 15.059 80.1507 16.7197C81.7814 15.1407 83.6552 13.8248 85.6121 12.6633C87.5659 11.4866 89.6347 10.5004 91.7419 9.61108C93.8683 8.75805 96.0363 7.99878 98.2682 7.43614C100.494 6.85838 102.767 6.42279 105.092 6.28061L105.095 6.27759Z" fill="#D8B067"/>
<path d="M84.1509 7.09428C79.8405 7.6176 75.4726 7.07916 71.3253 6.00227C69.2565 5.43661 67.2292 4.76204 65.2723 3.95741C63.309 3.1679 61.3968 2.29974 59.5039 1.28638C61.6782 1.42552 63.7886 1.85204 65.8479 2.33301C67.9135 2.80188 69.928 3.37662 71.9489 3.89086C73.957 4.44745 75.9746 4.94052 77.9987 5.46686C80.0292 5.97807 82.0756 6.46509 84.1509 7.09731V7.09428Z" fill="#D8B067"/>
<path d="M57.3679 10.101C55.5453 11.3473 53.6875 12.4454 51.8393 13.5404L46.3106 16.8013C44.456 17.8661 42.627 18.9702 40.7373 20.0198C38.8571 21.0786 36.9449 22.1191 34.8953 22.9994C36.3662 21.3871 37.9809 19.9563 39.6916 18.6193C41.3928 17.2702 43.209 16.0602 45.0892 14.9349C46.9917 13.8459 48.9518 12.8386 51.0047 12.0219C53.0511 11.193 55.1616 10.5094 57.3679 10.095V10.101Z" fill="#D8B067"/>
<path d="M37.6132 12.9778C35.5284 13.4285 33.386 13.5434 31.2468 13.4012C29.1076 13.2712 26.9652 12.8416 24.906 12.0733C22.8691 11.2596 20.9794 10.1222 19.4477 8.60368C17.9193 7.10935 16.7458 5.21271 16.4452 3.19507C17.6539 4.86484 19.0736 6.20187 20.65 7.32412C22.2392 8.42521 23.9691 9.35689 25.7821 10.0436C27.592 10.7635 29.5361 11.2535 31.5122 11.7164L37.61 12.9808L37.6132 12.9778Z" fill="#D8B067"/>
<path d="M127.018 13.2983C132.441 10.8239 138.222 9.06643 144.102 7.75058C150.005 6.49825 156.036 5.83578 162.073 5.50001C168.116 5.1461 174.176 5.30944 180.206 5.67849C186.243 6.08685 192.207 6.74629 198.193 7.37548C210.145 8.72764 222.069 10.3793 233.891 12.53C239.8 13.625 245.693 14.7957 251.557 16.0692C257.402 17.4244 263.238 18.8189 269.006 20.4342C257.233 18.111 245.437 15.9905 233.584 14.1967C221.727 12.4423 209.845 10.8572 197.924 9.55345C185.994 8.21944 174.099 6.87334 162.146 7.18189C150.223 7.41481 138.267 9.21163 127.024 13.3014L127.018 13.2983Z" fill="#D8B067"/>
<path d="M138.737 9.47185C139.993 8.38287 141.327 7.46933 142.683 6.60117C144.032 5.72394 145.413 4.9193 146.814 4.14491C148.218 3.37355 149.634 2.63244 151.092 1.94578C152.544 1.24399 154.015 0.575473 155.607 0.000732422C154.6 1.30449 153.375 2.39649 152.08 3.38263C150.792 4.38086 149.41 5.25205 147.984 6.04156C146.555 6.82199 145.074 7.52681 143.536 8.10457C142.005 8.69746 140.422 9.19658 138.74 9.46883L138.737 9.47185Z" fill="#D8B067"/>
<path d="M163.902 6.27744C166.23 6.42264 168.5 6.8552 170.725 7.43297C172.957 7.99864 175.125 8.7579 177.252 9.60791C179.362 10.4972 181.431 11.4834 183.382 12.6601C185.338 13.8217 187.215 15.1375 188.843 16.7165C184.542 15.0558 180.478 13.3044 176.324 11.6195L170.121 9.03922C168.049 8.17106 165.967 7.2908 163.902 6.27441V6.27744Z" fill="#D8B067"/>
<path d="M184.852 7.09413C186.924 6.46494 188.971 5.9749 191.001 5.46368C193.029 4.94037 195.046 4.44428 197.051 3.88769C199.072 3.37344 201.087 2.80173 203.155 2.32984C205.218 1.84887 207.325 1.42235 209.499 1.2832C207.606 2.29656 205.694 3.16472 203.728 3.95423C201.771 4.75887 199.747 5.43343 197.678 5.9991C193.524 7.07598 189.16 7.61442 184.852 7.09111V7.09413Z" fill="#D8B067"/>
<path d="M211.629 10.1011C213.835 10.5155 215.949 11.1991 217.992 12.028C220.045 12.8447 222.005 13.849 223.905 14.941C225.785 16.0663 227.604 17.2763 229.302 18.6254C231.013 19.9624 232.631 21.3932 234.098 23.0055C232.052 22.1253 230.14 21.0847 228.256 20.0259C226.367 18.9793 224.534 17.8722 222.68 16.8074L217.154 13.5465C215.306 12.4515 213.448 11.3534 211.626 10.1071L211.629 10.1011Z" fill="#D8B067"/>
<path d="M231.384 12.9779L237.481 11.7134C239.458 11.2536 241.405 10.7606 243.211 10.0406C245.028 9.35396 246.758 8.4253 248.344 7.3212C249.923 6.19894 251.343 4.86494 252.552 3.19214C252.251 5.20978 251.078 7.10642 249.552 8.60075C248.021 10.1193 246.131 11.2567 244.091 12.0704C242.035 12.8387 239.892 13.2682 237.75 13.3983C235.611 13.5375 233.468 13.4255 231.38 12.9748L231.384 12.9779Z" fill="#D8B067"/>
</g>
<defs>
<clipPath id="clip0_18_124">
<rect width="269" height="23" fill="white"/>
</clipPath>
</defs>
</svg>
