<svg width="415" height="37" viewBox="0 0 415 37" fill="none" xmlns="http://www.w3.org/2000/svg">
<g clip-path="url(#clip0_189_2)">
<path d="M219.043 15.607C201.699 22.1812 183.259 25.0766 164.858 25.4513C146.419 25.9477 128.068 23.7822 109.662 21.6362C91.2668 19.5389 72.9404 16.989 54.6437 14.1666C36.3617 11.2809 18.1635 7.87454 -0.00497437 4.13241C8.8943 6.73098 17.8922 8.96944 26.9148 11.1544C35.9621 13.2031 45.0537 15.0863 54.1701 16.8479C72.4126 20.3077 90.8031 22.9647 109.243 25.1399C118.473 26.1521 127.673 27.2129 136.992 27.8699C146.29 28.4635 155.639 28.7263 164.962 28.157C174.276 27.6168 183.579 26.5511 192.686 24.5365C201.758 22.4197 210.677 19.5875 219.043 15.6118V15.607Z" fill="#D8B067"/>
<path d="M162.135 26.9015C158.944 25.2664 155.742 23.8552 152.541 22.4538L142.97 18.3029C136.557 15.5924 130.287 12.7748 123.652 10.1033C126.168 12.6435 129.059 14.7603 132.078 16.6289C135.092 18.5219 138.284 20.1082 141.535 21.5389C144.815 22.9112 148.16 24.1326 151.603 25.0377C155.037 25.9672 158.544 26.6679 162.13 26.8966L162.135 26.9015Z" fill="#D8B067"/>
<path d="M129.824 25.5876C123.174 24.7458 116.435 25.612 110.037 27.3443C106.846 28.2543 103.718 29.3395 100.699 30.6339C97.67 31.904 94.72 33.3006 91.7996 34.9308C95.1541 34.7069 98.4099 34.0208 101.587 33.2471C104.774 32.4928 107.881 31.5682 110.999 30.741C114.097 29.8456 117.21 29.0524 120.333 28.2057C123.465 27.3833 126.622 26.5998 129.824 25.5828V25.5876Z" fill="#D8B067"/>
<path d="M88.5043 20.7506C85.6925 18.7458 82.8263 16.9793 79.975 15.2177L71.4457 9.97196C68.5846 8.25905 65.7628 6.48287 62.8474 4.79429C59.9467 3.09112 56.9968 1.41714 53.8347 0.0010643C56.1039 2.59476 58.5951 4.89649 61.2343 7.04736C63.8587 9.21769 66.6607 11.1642 69.5613 12.9744C72.4965 14.7263 75.5205 16.3467 78.6875 17.6606C81.8447 18.9939 85.1005 20.0937 88.5043 20.7604V20.7506Z" fill="#D8B067"/>
<path d="M58.0278 16.1229C54.8114 15.3978 51.5063 15.2129 48.206 15.4416C44.9058 15.6508 41.6006 16.3418 38.4237 17.5779C35.2814 18.8869 32.3659 20.7166 30.003 23.1594C27.645 25.5633 25.8345 28.6145 25.3708 31.8602C27.2355 29.1741 29.4258 27.0232 31.8578 25.2178C34.3096 23.4465 36.9783 21.9477 39.7754 20.8431C42.5675 19.6849 45.5668 18.8966 48.6155 18.1521L58.0229 16.118L58.0278 16.1229Z" fill="#D8B067"/>
<path d="M195.957 15.6071C204.323 19.5876 213.242 22.4149 222.314 24.5317C231.42 26.5463 240.724 27.612 250.038 28.1522C259.361 28.7215 268.71 28.4588 278.013 27.8651C287.327 27.2082 296.527 26.1473 305.762 25.1351C324.202 22.9599 342.597 20.303 360.835 16.8431C369.951 15.0815 379.043 13.1983 388.09 11.1496C397.108 8.96955 406.111 6.72622 415.01 4.12765C396.846 7.86491 378.648 11.2761 360.361 14.1618C342.069 16.9842 323.738 19.5341 305.348 21.6315C286.942 23.7775 268.591 25.9429 250.151 25.4466C231.756 25.0719 213.311 22.1813 195.966 15.6022L195.957 15.6071Z" fill="#D8B067"/>
<path d="M252.86 26.9015C256.451 26.6679 259.953 25.9721 263.387 25.0426C266.83 24.1326 270.175 22.9112 273.455 21.5438C276.711 20.1131 279.903 18.5267 282.912 16.6338C285.931 14.7651 288.827 12.6483 291.338 10.1082C284.703 12.7797 278.433 15.5973 272.025 18.3078L262.455 22.4586C259.258 23.8553 256.046 25.2713 252.86 26.9064V26.9015Z" fill="#D8B067"/>
<path d="M285.181 25.5877C288.378 26.5998 291.535 27.3882 294.667 28.2105C297.795 29.0524 300.908 29.8505 304.001 30.7459C307.119 31.5731 310.226 32.4928 313.418 33.252C316.6 34.0257 319.851 34.7118 323.205 34.9357C320.285 33.3055 317.335 31.9089 314.301 30.6388C311.282 29.3444 308.159 28.2592 304.968 27.3492C298.56 25.6169 291.826 24.7507 285.181 25.5925V25.5877Z" fill="#D8B067"/>
<path d="M326.491 20.7506C329.895 20.0839 333.155 18.9842 336.308 17.6508C339.475 16.3369 342.499 14.7214 345.429 12.9647C348.329 11.1544 351.136 9.20793 353.756 7.03759C356.395 4.88672 358.891 2.585 361.155 -0.00870132C357.998 1.40737 355.048 3.08135 352.143 4.78453C349.227 6.46825 346.401 8.24928 343.539 9.96219L335.015 15.208C332.164 16.9696 329.298 18.736 326.486 20.7409L326.491 20.7506Z" fill="#D8B067"/>
<path d="M356.967 16.1229L366.375 18.157C369.423 18.8966 372.428 19.6898 375.215 20.848C378.017 21.9526 380.686 23.4465 383.132 25.2227C385.569 27.0281 387.76 29.1741 389.624 31.8651C389.161 28.6193 387.35 25.5682 384.997 23.1643C382.634 20.7215 379.719 18.8918 376.571 17.5827C373.399 16.3467 370.094 15.6557 366.789 15.4465C363.489 15.2226 360.184 15.4027 356.962 16.1277L356.967 16.1229Z" fill="#D8B067"/>
<path d="M225 19.5284C225 28.0282 209.246 34.9082 208.575 35.1923C208.398 35.2684 208.201 35.3083 208 35.3083C207.799 35.3083 207.602 35.2684 207.425 35.1923C206.754 34.9082 191 28.0282 191 19.5284C191.003 17.5324 191.995 15.6189 193.759 14.2075C195.524 12.7961 197.916 12.0022 200.411 12C203.545 12 206.289 13.0783 208 14.9009C209.711 13.0783 212.455 12 215.589 12C218.084 12.0022 220.476 12.7961 222.241 14.2075C224.005 15.6189 224.997 17.5324 225 19.5284Z" fill="#D8B067"/>
</g>
<defs>
<clipPath id="clip0_189_2">
<rect width="415" height="37" fill="white" transform="matrix(1 0 0 -1 0 37)"/>
</clipPath>
</defs>
</svg>
