<svg width="563" height="51" viewBox="0 0 563 51" fill="none" xmlns="http://www.w3.org/2000/svg">
<g clip-path="url(#clip0_18_95)">
<path d="M297.16 29.4876C273.63 20.4258 248.614 16.4348 223.651 15.9184C198.635 15.2342 173.74 18.219 148.771 21.177C123.815 24.068 98.953 27.5827 74.1311 31.4731C49.3293 35.4506 24.6412 40.1458 -0.00668335 45.3039C12.0663 41.7221 24.2731 38.6367 36.5134 35.625C48.7872 32.8011 61.1212 30.2053 73.4886 27.7772C98.2369 23.0082 123.186 19.3459 148.202 16.3476C160.723 14.9525 173.205 13.4903 185.846 12.5847C198.461 11.7664 211.143 11.4042 223.792 12.189C236.427 12.9335 249.049 14.4025 261.403 17.1794C273.71 20.0971 285.81 24.0009 297.16 29.4809V29.4876Z" fill="white"/>
<path d="M219.957 13.9194C215.627 16.1732 211.284 18.1183 206.941 20.0501L193.957 25.7716C185.257 29.5077 176.751 33.3913 167.75 37.0737C171.163 33.5724 175.085 30.6546 179.181 28.079C183.27 25.4697 187.6 23.2831 192.01 21.3111C196.46 19.4196 200.998 17.736 205.669 16.4884C210.327 15.2073 215.085 14.2414 219.951 13.9261L219.957 13.9194Z" fill="white"/>
<path d="M176.122 15.7304C167.101 16.8908 157.959 15.6969 149.279 13.309C144.949 12.0547 140.707 10.559 136.611 8.77477C132.502 7.02411 128.5 5.09906 124.538 2.85205C129.089 3.1606 133.506 4.10635 137.815 5.17284C142.139 6.21251 146.355 7.48693 150.584 8.62721C154.787 9.86139 159.01 10.9547 163.246 12.1218C167.496 13.2554 171.779 14.3353 176.122 15.7372V15.7304Z" fill="white"/>
<path d="M120.067 22.3977C116.253 25.1612 112.364 27.596 108.496 30.0241L96.9252 37.2548C93.0436 39.6158 89.2156 42.0641 85.2605 44.3916C81.3254 46.7392 77.3233 49.0466 73.0335 50.9985C76.112 47.4234 79.4916 44.2507 83.0721 41.286C86.6324 38.2945 90.4336 35.6115 94.3687 33.1163C98.3507 30.7016 102.453 28.468 106.75 26.657C111.033 24.8191 115.45 23.3032 120.067 22.3843V22.3977Z" fill="white"/>
<path d="M78.722 28.7768C74.3586 29.7762 69.8748 30.0311 65.3976 29.7158C60.9204 29.4274 56.4365 28.4749 52.1267 26.7712C47.8636 24.9669 43.9085 22.4449 40.7028 19.0777C37.5039 15.7642 35.0478 11.5586 34.4187 7.08472C36.9484 10.7873 39.9198 13.752 43.2192 16.2405C46.5453 18.682 50.1658 20.7479 53.9604 22.2705C57.7482 23.8669 61.8172 24.9535 65.9531 25.9797L78.7153 28.7835L78.722 28.7768Z" fill="white"/>
<path d="M265.84 29.4875C277.19 24.0008 289.29 20.1037 301.597 17.186C313.951 14.4091 326.573 12.9401 339.208 12.1956C351.857 11.4108 364.539 11.773 377.16 12.5913C389.795 13.4968 402.277 14.9591 414.805 16.3542C439.821 19.3525 464.777 23.0148 489.518 27.7838C501.886 30.2119 514.22 32.8077 526.493 35.6316C538.727 38.6365 550.94 41.7287 563.013 45.3105C538.372 40.1591 513.684 35.4572 488.876 31.4796C464.06 27.5893 439.192 24.0746 414.243 21.1836C389.273 18.2256 364.378 15.2408 339.362 15.925C314.406 16.4414 289.384 20.4257 265.853 29.4942L265.84 29.4875Z" fill="white"/>
<path d="M343.036 13.9195C347.908 14.2415 352.66 15.2007 357.318 16.4818C361.989 17.7361 366.526 19.4197 370.977 21.3045C375.394 23.2765 379.724 25.4632 383.806 28.0724C387.902 30.648 391.83 33.5658 395.236 37.0671C386.235 33.3847 377.729 29.5011 369.036 25.765L356.053 20.0435C351.716 18.1184 347.359 16.1666 343.036 13.9128V13.9195Z" fill="white"/>
<path d="M386.884 15.7306C391.221 14.3354 395.504 13.2488 399.754 12.1152C403.997 10.9548 408.219 9.85479 412.416 8.62061C416.645 7.48034 420.861 6.21262 425.191 5.16625C429.508 4.09976 433.918 3.154 438.469 2.84546C434.507 5.09247 430.505 7.01752 426.389 8.76818C422.293 10.5524 418.057 12.0481 413.727 13.3024C405.034 15.6903 395.899 16.8843 386.884 15.7239V15.7306Z" fill="white"/>
<path d="M442.926 22.3977C447.544 23.3166 451.967 24.8325 456.244 26.6704C460.54 28.4814 464.643 30.7083 468.618 33.1297C472.553 35.6249 476.361 38.3079 479.915 41.2994C483.495 44.2641 486.881 47.4368 489.953 51.0119C485.67 49.06 481.668 46.7526 477.726 44.405C473.771 42.0842 469.936 39.6293 466.055 37.2682L454.49 30.0375C450.622 27.6094 446.734 25.1746 442.919 22.4111L442.926 22.3977Z" fill="white"/>
<path d="M484.271 28.7766L497.034 25.9729C501.169 24.9534 505.245 23.86 509.026 22.2637C512.828 20.7411 516.448 18.6819 519.767 16.2336C523.073 13.7451 526.045 10.7871 528.575 7.07788C527.946 11.5518 525.489 15.7574 522.297 19.0709C519.092 22.4381 515.136 24.9601 510.867 26.7644C506.563 28.4681 502.08 29.4206 497.596 29.709C493.119 30.0175 488.635 29.7693 484.265 28.7699L484.271 28.7766Z" fill="white"/>
<path d="M304 18.6277C304 31.7558 283.613 42.3821 282.744 42.8209C282.516 42.9385 282.26 43 282 43C281.74 43 281.484 42.9385 281.256 42.8209C280.387 42.3821 260 31.7558 260 18.6277C260.004 15.5449 261.288 12.5894 263.571 10.4095C265.854 8.22965 268.95 7.00347 272.179 7C276.235 7 279.786 8.66539 282 11.4804C284.214 8.66539 287.765 7 291.821 7C295.05 7.00347 298.146 8.22965 300.429 10.4095C302.712 12.5894 303.996 15.5449 304 18.6277Z" fill="#D8B067"/>
</g>
<defs>
<clipPath id="clip0_18_95">
<rect width="563" height="51" fill="white"/>
</clipPath>
</defs>
</svg>
