<svg width="28" height="24" viewBox="0 0 28 24" fill="none" xmlns="http://www.w3.org/2000/svg">
<g clip-path="url(#clip0_18_151)">
<path d="M10.9485 19.6687L10.971 19.6995L11.1528 19.6639L11.2547 19.6747L11.3318 19.7283L11.3443 19.7867L11.3469 19.9611L11.3262 20.0755L11.3281 20.1047L11.3634 20.1459L11.8935 20.1804L11.9402 20.2548L11.9485 20.3424L11.9748 20.384L12.0956 20.4772L12.146 20.4856L12.1866 20.5372L12.1644 20.686L12.1701 20.8372L12.2216 21.0225L12.2491 21.0897L12.3134 21.1697L12.342 21.2717L12.3194 21.3201L12.1908 21.2897L12.0895 21.1853L11.994 21.1517L11.8902 21.0661L11.8683 20.9816L11.8236 20.9228L11.6956 20.8864L11.6046 20.892L11.5941 20.9284L11.614 21.0689L11.5448 21.2729L11.5568 21.2909L11.6407 21.2845L11.6144 21.3821L11.5869 21.4181L11.3582 21.4117L11.3168 21.4509L11.3142 21.4809L11.3544 21.5585L11.3089 21.7909L11.3078 21.887L11.3326 21.9866L11.2886 22.1022L11.1938 22.1798L11.1972 22.2106L11.1795 22.2362L11.1877 22.295L11.2099 22.3218L11.2107 22.3686L11.1855 22.4334L11.2528 22.5682L11.2577 22.6422L11.1689 22.5706L11.0583 22.5142L10.9906 22.5314L10.8672 22.4826L10.7622 22.4874L10.7205 22.513L10.6027 22.5362L10.535 22.5254L10.4804 22.469L10.4583 22.425L10.4643 22.381L10.5158 22.233L10.6445 22.0598L10.7344 21.8922L10.7325 21.7809L10.7077 21.7121L10.6874 21.7101L10.8036 21.3001L10.8826 21.1453L10.9511 21.0781L10.9955 20.9564L11.029 20.9204L11.0452 20.84L11.0316 20.702L11.0421 20.62L10.9853 20.5224L11.0316 20.4916L11.0173 20.1527L10.9996 20.0987L10.9605 20.0407L10.7596 19.9695L10.684 19.9019L10.7318 19.8131L10.7829 19.7611L10.9485 19.6687Z" fill="#D8B067"/>
<path d="M25.6824 7.48765L25.6775 7.56086L25.6467 7.63127L25.6083 7.69407L25.5669 7.72728L25.5003 7.84329L25.4492 8.03892L25.3491 8.13693L25.331 8.18093L25.3081 8.30135L25.3352 8.44576L25.3641 8.48817V8.55618L25.3036 8.62259L25.2938 8.80701L25.2573 8.87382L25.2622 9.01183L25.2328 9.08944L25.1557 9.19225L25.1459 9.31307L25.0854 9.35467L25.0312 9.45909L24.8103 9.50549L24.6531 9.74072L24.6587 9.77992L24.7167 9.84473L24.7182 9.87033L24.6749 9.97995L24.6053 10.0356L24.6042 10.1064L24.6301 10.1704L24.7313 10.2236L24.7693 10.2872L24.6881 10.4108L24.6832 10.5008L24.6629 10.5524L24.673 10.5968L24.6324 10.6556L24.6448 10.6868L24.6365 10.7432L24.6527 10.7684L24.6249 10.8565L24.5865 10.9221L24.55 10.9169L24.486 10.9697L24.1847 11.0025L24.0812 11.0889L24.0203 11.1005L23.8788 11.2361L23.7374 11.3153L23.7408 11.3689L23.8299 11.3797L23.8484 11.3965L23.8517 11.6958L23.8243 11.7234L23.793 11.8998L23.8246 11.9826L23.781 12.1438L23.7923 12.1966L23.6866 12.3886L23.5873 12.4806L23.5869 12.5206L23.6136 12.5603L23.5827 12.6423L23.6305 12.7991L23.588 12.8731L23.547 12.8883L23.4842 12.8791L23.4292 12.9007L23.4078 12.9447L23.4018 13.0539L23.3649 13.0835L23.3277 13.1575L23.2456 13.1651L23.1177 13.2755L23.0865 13.2803L22.8653 13.2147L22.8405 13.2411L22.8314 13.3095L22.787 13.3559L22.7566 13.478L22.69 13.5716L22.6023 13.5772L22.5602 13.6128L22.4672 13.6016L22.3976 13.65L22.3258 13.6632L22.2987 13.696L22.2731 13.8576L22.3273 14.0664L22.3491 14.2973L22.3468 14.3389L22.3179 14.3613L22.2265 14.5417L22.2498 14.6421L22.2581 14.7913L22.1027 15.0454L21.9714 15.169L21.9052 15.2894L21.8871 15.3694L21.845 15.4282L21.8295 15.5662L21.7878 15.6286L21.8137 15.8743L21.8382 15.9463L21.728 16.0055L21.6542 16.0163L21.5508 16.1419L21.5049 16.1067L21.5067 16.0443L21.4338 15.8594L21.4195 15.7178L21.3916 15.6486L21.4134 15.429L21.3743 15.3482L21.2934 15.2442L21.1309 15.0906L21.0368 14.9645L20.9797 14.9197L20.9262 14.9025L20.8645 14.9177L20.7581 15.0782L20.6557 15.1578L20.5538 15.0598L20.4443 14.8717L20.3495 14.6025L20.3803 14.5393L20.5361 14.3481L20.6791 14.2193L20.8702 14L21.1949 13.5392L21.4251 13.3303L21.4417 13.2471L21.4274 13.0159L21.6527 12.5583L21.6903 12.4134L21.6806 12.341L21.6046 12.1874L21.4488 12.1286L21.3487 12.011L21.3359 11.8574L21.3532 11.7706L21.1554 11.3777L21.0771 11.3261L20.9022 11.2829L20.8472 11.2061L20.6422 10.7988L20.8754 10.7624L21.0022 10.7052L21.3559 10.4788L21.5722 10.3188L21.6136 10.2256L21.594 10.0776L21.6196 9.66831L21.8581 9.70711L21.9597 9.69951L22.1316 9.64671L22.1971 9.6039L22.2611 9.52789L22.4014 9.30587L22.6347 9.02343L22.7291 8.98863L22.9657 8.96903L23.1877 8.88022L23.2795 8.7754L23.3104 8.66899L23.4353 8.66339L23.5237 8.61778L23.6072 8.46977L23.6862 8.38336L23.7806 8.32455L24.1012 8.35615L24.2091 8.39736L24.3062 8.45937L24.4131 8.58378L24.5045 8.62979L24.594 8.67059L24.7592 8.67019L24.8021 8.62139L24.8578 8.31095L24.9597 8.08372L25.0056 7.9381L25.0387 7.77408L25.0492 7.45365L25.1655 7.43644L25.1888 7.46605L25.3299 7.51165L25.4751 7.50005L25.6866 7.43044L25.6824 7.48765Z" fill="#D8B067"/>
<path d="M11.3962 23.4155V23.4159L11.3954 23.4151L11.3962 23.4155ZM11.681 23.3875L11.7175 23.4075L11.7521 23.3999L11.7852 23.3943L11.7976 23.4055L11.6629 23.4355L11.6445 23.4119L11.681 23.3875ZM13.1975 23.0851L13.2307 23.1687L13.2021 23.2015L13.1618 23.2103L13.1535 23.1607L13.1746 23.1567L13.1878 23.1207L13.1975 23.0851ZM11.2577 22.6422L11.2532 22.5682L11.1859 22.4338L11.2111 22.3686L11.2103 22.3218L11.1881 22.295L11.1799 22.2362L11.1976 22.2102L11.1942 22.1794L11.289 22.1018L11.3334 21.9862L11.3085 21.8866L11.3093 21.7901L11.3548 21.5577L11.3146 21.4801L11.3172 21.4501L11.3586 21.4109L11.5877 21.4173L11.6152 21.3813L11.6415 21.2837L11.5576 21.2901L11.5456 21.2721L11.6148 21.0681L11.5948 20.9276L11.6058 20.8912L11.6968 20.8856L11.8247 20.922L11.8695 20.9808L11.8913 21.0653L11.9948 21.1509L12.0903 21.1845L12.1915 21.2889L12.1596 21.2929L12.1163 21.3909L12.1411 21.4625L12.1727 21.4749L12.2021 21.5525L12.3815 21.5301L12.5681 21.6373L12.5832 21.7213L12.5602 21.9654L12.6216 22.1706L12.7498 22.367L12.8699 22.479L13.0117 22.6522L13.1498 22.7647L13.172 22.8051L13.1558 22.8915L13.1855 22.9091L13.1866 23.0091L13.1678 23.0271L13.1524 23.0003L13.1498 23.0235L13.1945 23.0703L13.172 23.1423L13.1441 23.1499L13.1479 23.1911L13.1091 23.2371L13.1182 23.2439L13.0787 23.3391L12.8819 23.3139L12.6659 23.3111L12.263 23.3331L11.8097 23.4003L11.7901 23.3819L11.7216 23.3963L11.6866 23.3771L11.6535 23.3915L11.6178 23.3879L11.617 23.3891L11.6359 23.4215L11.646 23.4387L11.5211 23.4915L11.4842 23.4235L11.4402 23.3975L11.4079 23.3899L11.3717 23.3475L11.386 23.3111L11.3827 23.3063L11.3627 23.3263L11.3439 23.3111L11.321 23.2643L11.3225 23.2387L11.3416 23.2259L11.3198 23.0439L11.3559 22.8731L11.3322 22.7811L11.2577 22.6422Z" fill="#D8B067"/>
<path d="M9.88229 17.7985L9.89884 17.8145L9.90222 17.9593L10.0463 17.9541L10.1381 18.0105L10.2152 18.0137L10.3556 18.0817L10.3691 18.1133L10.3221 18.2513L10.2939 18.2945L10.2303 18.3401L10.1607 18.4394L10.1697 18.4778L10.1464 18.511L10.1302 18.605L10.1449 18.6266L10.2897 18.673L10.3432 18.745L10.3936 18.8906L10.4429 18.9646L10.4316 19.003L10.4007 19.0146L10.4161 19.0694L10.3973 19.1342L10.4244 19.1638L10.4955 19.1186L10.5185 19.1238L10.5407 19.227L10.5907 19.2523L10.5775 19.3383L10.6483 19.4899L10.655 19.5503L10.6836 19.5895L10.7736 19.6455L10.836 19.6071L10.8766 19.6107L10.9188 19.6403L10.9173 19.6619L10.9485 19.6687L10.783 19.7611L10.7318 19.8131L10.684 19.9019L10.4839 19.9587L10.2815 19.9087L10.0441 19.9551L9.97709 19.9967L9.9421 20.1388L9.85294 20.3232L9.75211 20.334L9.58244 20.2572L9.52149 20.2892L9.40862 20.4424L9.32999 20.4756L9.2397 20.4672L9.19794 20.416L9.23594 20.3692L9.30817 20.2132L9.32096 20.1076L9.38755 19.9199L9.48161 19.7379L9.49591 19.4975L9.54406 19.3515L9.49779 19.2006L9.44211 18.909L9.44512 18.8542L9.4026 18.809L9.32247 18.4262L9.31983 18.4146L9.38266 18.3837L9.51773 18.4101L9.57153 18.3745L9.64075 18.2741L9.64301 18.1649L9.68966 18.0001L9.77393 17.9077L9.83187 17.8733L9.88229 17.7985Z" fill="#D8B067"/>
<path d="M18.5079 3.50117L18.7991 3.7488L18.842 3.86601L18.871 4.14925L18.8638 4.22166L18.9827 4.40808L18.9906 4.67771L19.003 4.78572L19.0388 4.89414L19.0463 5.04896L19.3605 5.88546L19.3518 6.08228L19.3123 6.19109L19.2751 6.46232L19.3364 6.52353L19.4508 6.53833L19.4207 6.54793L19.3187 6.69835L19.0915 6.82957L18.9948 6.97759L18.9192 7.04759L18.8631 7.078L18.716 7.1132L18.6618 7.16761L18.6099 7.24882L18.5734 7.44644L18.4752 7.74368L18.3394 7.9465L18.3319 8.00171L18.6095 8.12132L18.6524 8.18973L18.6851 8.47576L18.7182 8.52177L18.9891 8.62658L19.0674 8.82421L19.0493 9.16945L19.0644 9.28386L19.0331 9.35427L18.8864 9.37947L18.8116 9.41628L18.7623 9.49268L18.7747 9.55749L18.9361 9.73271L19.0301 9.78912L19.3744 10.0728L19.4207 10.2244L19.4436 10.472L19.5407 10.6832L19.6043 10.768L19.5994 10.806L19.5775 10.8124L19.4274 10.8112L19.1851 10.7676L18.7867 10.9617L18.5666 10.9305L18.3939 11.0365L18.1547 10.8993L17.9222 10.7376L17.5057 10.548L17.1573 10.3508L17.0606 10.3304L16.7747 10.1724L16.6607 10.2436L16.6494 10.3012L16.7687 10.4636L16.7788 10.5332L16.76 10.6L16.5809 10.652L16.4722 10.8604L16.307 10.9169L15.9293 10.9405L15.7235 10.8813L15.5429 10.8704L15.4861 10.8492L15.4274 10.7956L15.3654 10.6328L15.3315 10.5864L15.3018 10.558L15.1543 10.5012L15.1317 10.4672L15.1351 10.3996L15.2247 10.2208L15.2333 10.174L15.2235 9.93634L15.187 9.81112L15.1193 9.73431L15.0794 9.72591L14.6667 9.81352L14.6682 9.31826L14.6389 9.12624L14.5407 8.95982L14.4361 8.92462L14.3165 8.92142L14.2589 8.94102L14.1637 8.83261L14.0587 8.7626L14.0486 8.7334L14.137 8.56537L14.1569 8.40696L14.1942 8.38455L14.2916 8.22093L14.3417 8.06692L14.3387 7.98691L14.3097 7.9201L14.1645 7.74688L14.1475 7.66727L14.1325 7.39163L14.1494 7.25162L14.2096 7.0688L14.248 7.05159L14.3496 7.05799L14.4263 7.03759L14.5294 6.90918L14.6291 6.74476L14.8074 6.57794L14.8326 6.53393L14.9259 6.47112L14.9895 6.45912L15.0324 6.50193L15.0753 6.50553L15.283 6.41872L15.3206 6.41112L15.5463 6.45512L15.8259 6.55153L15.9519 6.49313L16.0384 6.52233L16.1054 6.66915L16.2231 6.67755L16.5128 6.65835L16.6471 6.62194L16.69 6.63394L16.7905 6.82997L16.8108 6.91598L16.7796 7.23002L16.8101 7.31203L16.8608 7.36643L17.0753 7.41404L17.286 7.35843L17.3447 7.36523L17.4146 7.41964L17.5072 7.44444L17.5772 7.42164L17.5354 7.28442L17.5369 7.21241L17.5945 7.136L17.6897 7.0816L17.8417 7.04199L17.8958 7.01079L17.9654 6.95518L18.0068 6.84637L17.9677 6.78796L17.634 6.76556L17.4188 6.71475L17.1784 6.68395L17.0659 6.60994L16.8665 6.31311L16.827 6.21309L16.8093 6.11028L16.6648 6.14789L16.6204 6.10348L16.5997 6.03387L16.6942 5.83385L16.6746 5.66103L16.6197 5.48421L16.5516 5.46421L16.4481 5.47501L16.3684 5.51621L16.2702 5.51781L16.2194 5.49261L16.2378 5.32219L16.359 5.14057L16.5907 5.12216L16.7965 5.00055L17.2081 4.85133L17.4425 4.75092L17.4873 4.71332L17.4861 4.6233L17.4647 4.5481L17.7171 3.7244L17.8879 3.64639L18.0189 3.62439L18.0561 3.65719L18.0873 3.7228L18.0918 3.7784L18.5079 3.50117Z" fill="#D8B067"/>
<path d="M11.6501 14.7121L11.9936 14.8113L12.3138 14.8613L12.6415 15.0033L12.8266 15.1161L13.0241 15.1557L13.0644 15.1501L13.1893 15.2622L13.3898 15.3514L13.4327 15.3074L13.4361 15.253L13.2592 14.7873L13.2562 14.6865L13.2946 14.5721L13.3413 14.5157L13.4899 14.4277L13.5418 14.4165L13.6392 14.4093L13.7401 14.4269L14.1197 14.5757L14.3778 14.6377L14.5614 14.6541L14.7103 14.6453L14.7107 14.6173L15.1543 14.9745L15.0117 15.2134L15.0832 15.2362L15.3134 15.1309L15.5945 15.0929L15.9022 15.1121L16.1836 15.183L16.377 15.379L16.544 15.605L16.8589 15.9078L16.8537 15.9338L16.8977 15.9882L16.8879 16.0299L16.909 16.1011L16.8868 16.2303L16.7972 16.4659L16.8081 16.7027L16.7735 16.7599L16.6573 16.8375L16.5279 16.9676L16.4033 17.214L16.324 17.674L16.3469 17.7033L16.3345 17.7465L16.3334 18.0969L16.2619 18.4245L16.2348 18.4365L16.155 18.4073L16.1257 18.4641L16.1294 18.5442L16.0233 18.6138L15.956 18.6226L15.8514 18.605L15.827 18.543L15.6434 18.2777L15.4353 18.0485L15.3793 18.0197L15.263 18.0109L14.903 18.1005L14.7382 18.0829L14.6927 18.0473L14.7175 17.8565L14.6964 17.7909L14.3714 17.5756L14.1671 17.508L14.0877 17.5052L14.0008 17.5288L13.9214 17.5556L13.8642 17.6036L13.8932 17.7837L13.775 17.8605L13.6573 17.8937L13.5128 17.8881L13.4353 17.8613L13.3631 17.8793L13.3119 17.9493L13.2231 18.0277L13.1106 18.0473L13.0467 17.9565L13.0151 17.7861L12.9489 17.7341L12.9105 17.8265L12.7822 17.8413L12.7156 17.9565L12.6434 17.9937L12.5324 17.9837L12.4026 17.9997L12.3556 18.3289L12.3183 18.4109L12.2653 18.4345L12.1983 18.4049L12.0474 18.2577L12.023 18.1961L12.0294 18.1597L12.1152 17.9029L12.0813 17.678L12.0279 17.5924L11.9707 17.5464L11.865 17.5324L11.7818 17.6168L11.7028 17.646L11.593 17.5852L11.4583 17.4748L11.3495 17.3408L11.2465 17.0804L11.2514 17.0592L11.2668 17.0392L11.2984 17.0624L11.4252 17.194L11.456 17.19L11.5068 17.232H11.573L11.5858 17.0552L11.6219 16.9976L11.8642 16.8728L11.9884 16.7483L12.0614 16.5151L12.0772 16.3579L12.0948 16.3063L12.1411 16.2579L12.1547 16.1855L12.099 16.1667L11.9744 16.1795L11.9267 16.1375L11.88 15.9162L11.8586 15.6438L11.8582 15.3678L11.8307 15.2938L11.7292 15.1894L11.6584 15.0605L11.6381 14.8257L11.6501 14.7121Z" fill="#D8B067"/>
<path d="M24.9116 0.443203L24.9379 0.66923L24.9067 0.789244L25.038 1.03967L25.0305 1.14049L25.0132 1.16009L25.0237 1.07328L24.9846 1.12648L24.9763 1.20329L25.0658 1.30531L25.1584 1.32971L25.1339 1.35651L25.1445 1.37811L25.1738 1.38572L25.3416 1.68695L25.4481 1.81017L25.4876 1.81897L25.5523 1.85737L25.6136 1.90538L25.7592 1.93538L25.769 1.96979L25.7472 1.96938L25.7261 2.01339L25.7186 1.97179L25.6937 1.99499L25.6659 1.99339L25.7201 2.0574L25.7302 2.1278L25.8762 2.0814L25.9631 1.97699L26.056 1.89618L26.1162 1.86937L26.0756 1.93978L26.0813 1.95778L26.1057 1.95018L26.1272 2.04379L26.1147 2.05259L26.0895 1.99739L26.0575 2.01659L26.0361 2.0658L25.9601 2.0886L25.9853 2.16381L25.9405 2.20901L25.8706 2.35823L25.886 2.38903L25.9375 2.37103L25.9349 2.46864L25.9131 2.51465L25.9451 2.51625L25.9323 2.57066L25.889 2.63226L25.9041 2.65507L25.9631 2.63786L25.974 2.65987L25.8751 2.71547L25.9492 2.73548L25.9436 2.77108L25.9887 2.77308L25.9605 2.80708L25.9108 2.82029L25.9153 2.83709L25.962 2.82789L25.9665 2.85189L25.9484 2.86949L25.9398 2.85469L25.9018 2.86389L25.9108 2.8939L25.9387 2.88909L25.9067 2.9559L25.9635 2.9643L25.9718 3.01791L25.9503 3.04751L25.9601 3.09752L25.9966 3.10632L26.0165 3.15473L26.0075 3.20073L26.0809 3.22273L26.0937 3.28114L26.1166 3.30194L26.1772 3.26394L26.1945 3.27194L26.2212 3.34835L26.2671 3.37675L26.2788 3.41996L26.36 3.45076L26.3589 3.49477L26.3841 3.53477L26.3702 3.58238L26.3969 3.60798L26.4387 3.62998L26.4917 3.60998L26.567 3.62038L26.5568 3.66199L26.588 3.66439L26.6027 3.63678L26.6708 3.63398L26.7261 3.60158L26.8186 3.59838L26.825 3.64718L26.8653 3.65079L26.8608 3.68719L26.8138 3.69999L26.822 3.72119L26.8077 3.7468L26.8435 3.758L26.9281 3.86241L27.0568 3.84121L27.0955 3.83921L27.1117 3.87161L27.1764 3.83681L27.2867 3.87161L27.4183 3.85761L27.4439 3.87001L27.4759 3.87481L27.5365 3.88841L27.5662 3.93642L27.614 3.95002L27.6268 3.98482L27.6016 3.98563L27.6046 4.03043L27.6862 4.07084L27.7125 4.12564L27.6855 4.18125L27.798 4.21205L27.8265 4.27206L27.8062 4.29046L27.8487 4.31206L27.8781 4.31686L27.8826 4.29726L27.9191 4.29406L27.9383 4.27366L27.9883 4.37407L27.9368 4.42568L27.9247 4.49769L27.8969 4.53249L27.9225 4.6125L27.8578 4.65891L27.8555 4.72171L27.9383 4.87293L27.8928 4.94254L27.9014 4.99655L27.8141 5.10736L27.8145 5.16737L27.8254 5.31898L27.7991 5.36819L27.6934 5.4542L27.6911 5.4762L27.7385 5.54501L27.8141 5.59022L27.8954 5.67743L27.9119 5.76384L27.8886 5.95106L27.8412 5.98826L27.6019 6.09108L27.456 6.12708L27.392 6.25069L27.0876 6.37751L26.9642 6.46032L26.8916 6.56633L26.7238 6.64394L26.6366 6.64554L26.5342 6.55073L26.4394 6.53313L26.3992 6.49992L26.3589 6.50632L26.336 6.53673L26.3141 6.62954L26.2359 6.72395L26.2065 6.83116L26.1794 6.87317L26.1245 6.91157L26.1335 6.97118L26.1091 6.97958L26.0685 7.04679L25.9812 7.1284L25.9357 7.24481L25.8138 7.30922L25.7227 7.33082L25.6937 7.36083L25.6866 7.43044L25.4752 7.50004L25.3299 7.51164L25.1889 7.46604L25.1655 7.43644L25.0493 7.45364L25.0387 7.77408L25.0056 7.9381L24.9597 8.08371L24.8578 8.31094L24.8021 8.62138L24.7592 8.67018L24.594 8.67058L24.5045 8.62978L24.4131 8.58377L24.3062 8.45936L24.2092 8.39735L24.1012 8.35615L23.7807 8.32454L23.6862 8.38335L23.6072 8.46976L23.5237 8.61778L23.4353 8.66338L23.3104 8.66898L23.2795 8.7754L23.1877 8.88021L22.9658 8.96902L22.7291 8.98862L22.6347 9.02343L22.4014 9.30586L22.2611 9.52789L22.1971 9.60389L22.1317 9.6467L21.9597 9.69951L21.8582 9.70711L21.6196 9.6683L21.4725 9.58029L21.4044 9.51628L21.2867 9.26945L21.0737 9.17584L21.0049 9.10303L20.9135 8.96262L20.883 8.8494L21.0779 8.54697L21.1012 8.42615L21.0504 8.29414L21.1648 8.26653L21.2931 8.08531L21.2825 7.74967L21.3055 7.63886L21.3702 7.52565L21.4703 7.44884L21.892 7.32802L22.1219 7.18201L22.2005 7.05879L22.2096 6.94118L22.181 6.77516L22.1795 6.65634L22.2133 6.54193L22.322 6.40791L22.4462 6.17189L22.617 5.99466L22.6542 5.91025L22.6226 5.77704L22.5049 5.62702L22.3202 5.63542L22.2961 5.62102L22.2904 5.54341L22.468 5.17777L22.4044 4.88013L22.4093 4.74011L22.5049 4.08844L22.5068 3.85681L22.4421 3.70359L22.4628 3.61558L22.7284 3.36315L22.8175 3.23994L22.8868 3.07152L22.8687 2.9219L22.6881 2.76828L22.6336 2.69547L22.5873 2.54145L22.6433 2.22061L22.6463 2.05219L22.7009 2.04739L22.8657 2.0826L22.8668 2.03499L22.889 2.01859L22.8916 1.98899L22.8988 1.92058L22.9545 1.86737L22.9974 1.87697L23.0482 1.84777L23.0354 1.80136L23.0628 1.75816L23.0542 1.74536L23.0207 1.73776L23.0357 1.69255L23.0647 1.63935L23.0948 1.56814L23.1189 1.54413L23.2047 1.55814L23.2566 1.52333L23.2927 1.52693L23.3156 1.55654L23.3518 1.51213L23.3604 1.45452L23.4108 1.44532L23.4661 1.43372L23.477 1.41532L23.4643 1.39932L23.5011 1.35251L23.5805 1.33331L23.6038 1.2837L23.6554 1.2525L23.6614 1.2209L23.6832 1.19129L23.6983 1.16169L23.6975 1.12728L23.7389 1.11008L23.7551 1.06928L23.7246 1.05688L23.746 1.03247L23.7923 1.05768L23.7814 0.994869L23.8228 0.999669L23.8251 1.01847L23.857 1.03007L23.8984 1.02447L23.9688 0.957664L24.0071 0.942863L24.0192 0.958064L24.0937 0.954064L24.146 0.900858L24.1843 0.92046L24.1862 0.877255L24.2269 0.862853L24.2652 0.866453L24.2317 0.913259L24.2871 0.944863L24.3217 0.892457L24.3725 0.934061L24.3649 0.881655L24.4206 0.861253L24.4089 0.944463L24.4436 0.949263L24.4605 0.910459L24.5038 0.900457L24.5384 0.956064L24.5745 0.854852L24.6369 0.821248L24.6377 0.803646L24.617 0.796045L24.6241 0.767642L24.6689 0.775643L24.693 0.743639L24.6689 0.736838L24.6539 0.696033L24.7171 0.632025L24.7148 0.608823L24.7709 0.58202L24.769 0.544815L24.8085 0.50241L24.8551 0.492809L24.8698 0.450404L24.9116 0.443203Z" fill="#D8B067"/>
<path d="M9.45149 23.1751L9.44359 23.1503L9.41801 23.1543L9.26903 23.0503L9.22388 22.8751L9.17196 22.8003L9.09709 22.7995L8.85104 22.9011L8.81192 22.8907L8.79875 22.8131L8.81455 22.7547L8.69002 22.697L8.67121 22.6638L8.67384 22.4902L8.74533 22.3834L8.77392 22.3014L8.77505 22.2506L8.72652 22.257L8.69491 22.2258L8.74495 22.0482L8.91387 21.7345L9.01809 21.7413L9.03878 21.7213L9.067 21.6217L9.12493 21.5901L9.11628 21.5177L9.17572 21.4749L9.21147 21.4157L9.21034 21.3381L9.18664 21.2765L9.15804 21.2533L9.08581 21.2201L8.9752 21.2397L8.93607 21.2285L8.96504 21.3273L8.91989 21.3613L8.72877 21.4489L8.59747 21.4313L8.49439 21.4509L8.41877 21.6149L8.33938 21.6357L8.30966 21.6117L8.25436 21.6085L8.24081 21.6465L8.25059 21.7389L8.14412 21.8013L8.08318 21.8237L7.96993 21.8141L7.92366 21.8938L7.83675 21.9186L7.76565 21.8918L7.7284 21.8253L7.64902 21.7741L7.6208 21.7941L7.56512 21.917L7.44097 21.9826L7.3424 21.9658L7.06098 22.1298L7.02562 22.115L6.93833 22.131L6.90071 22.087L6.79951 22.023L6.68476 21.9946L6.57566 21.9282L6.49665 21.8441L6.47558 21.8729L6.44849 21.8501L6.39469 21.8714L6.38115 21.8513L6.31982 21.885L6.40861 22.0694L6.48047 22.3018L6.46768 22.3334L6.50342 22.3942L6.51659 22.4686L6.66933 22.7395L6.67648 22.7971L6.71185 22.8191L6.71222 22.8259L6.71411 22.8699L6.99627 23.2851L7.04104 23.3099L7.04029 23.3399L7.1445 23.3939L7.13434 23.4103L7.17385 23.4403L7.17836 23.4663L7.27468 23.5299L7.28182 23.5143L7.29349 23.5279L7.28521 23.5375L7.28596 23.5512L7.38416 23.6376L7.40221 23.6368L7.39695 23.606L7.38002 23.5976L7.43946 23.5792L7.41087 23.6072L7.42328 23.636L7.4135 23.6468L7.41613 23.6672L7.50342 23.7352L7.69416 23.8296L7.70131 23.7496L7.67159 23.7292L7.6509 23.6792L7.66369 23.684L7.6746 23.7196L7.70432 23.7284L7.69981 23.7004L7.71523 23.7016L7.71448 23.7296L7.73404 23.7364L7.74382 23.7672L7.7205 23.8144L7.73028 23.8316L7.71749 23.8836L7.73254 23.8952L7.92742 23.948L7.93457 23.8588L7.95902 23.8356L7.97332 23.9892L8.28709 23.9612L8.26301 23.8652L8.30176 23.7432L8.32622 23.6992L8.31531 23.6444L8.24345 23.5984L8.26151 23.5964L8.30628 23.6072L8.34239 23.6704L8.36497 23.6252L8.34427 23.5936L8.34766 23.5079L8.31606 23.4539L8.32772 23.4243L8.33412 23.4655L8.36008 23.4875L8.3612 23.5027L8.38904 23.5836L8.38528 23.7076L8.48761 23.6088L8.46579 23.5836L8.46956 23.5059L8.54141 23.4819L8.56023 23.4567L8.58618 23.5211L8.5907 23.5728L8.57264 23.614L8.59521 23.6668L8.5971 23.7312L8.64751 23.7416L8.68814 23.802L8.7062 23.8L8.69905 23.8132L8.70733 23.8304L8.78897 23.8112L8.79612 23.8248L8.77279 23.8508L8.83035 23.8824L9.14864 23.846L9.14939 23.8268L9.13434 23.8064L9.13171 23.7756L9.12794 23.762L9.15315 23.7276L9.17572 23.7044L9.15616 23.786L9.16444 23.8016L9.24081 23.872L9.27693 23.8328L9.40973 23.8176L9.39092 23.7188L9.38754 23.7036L9.37324 23.6584L9.32998 23.6284L9.32283 23.5888L9.32358 23.5812L9.33449 23.5387L9.31455 23.4487L9.29912 23.4267L9.31229 23.4123L9.34089 23.4483L9.38791 23.6164L9.40221 23.5932L9.37776 23.3839L9.44171 23.2483L9.45149 23.1751ZM8.74457 23.898L8.43532 23.9376L8.32998 23.9336L8.3217 23.9056L8.37287 23.8048L8.37851 23.804L8.39544 23.8056L8.40071 23.7536L8.4752 23.666L8.47971 23.6536L8.49589 23.618L8.51282 23.6104L8.49062 23.5796L8.48385 23.5275L8.50454 23.5135L8.5433 23.5059L8.57716 23.5596L8.55834 23.6128L8.58769 23.6776L8.57941 23.7404L8.64074 23.758L8.66519 23.7948L8.74457 23.898Z" fill="#D8B067"/>
<path d="M13.1106 18.0473L13.2231 18.0277L13.3119 17.9493L13.3631 17.8793L13.4353 17.8613L13.5128 17.8881L13.6573 17.8937L13.7751 17.8605L13.8932 17.7837L13.8642 17.6036L13.9214 17.5556L14.0008 17.5288L14.0877 17.5052L14.1671 17.508L14.3714 17.5756L14.6964 17.7909L14.7175 17.8565L14.6927 18.0473L14.7382 18.0829L14.903 18.1005L15.263 18.0109L15.3793 18.0197L15.4353 18.0485L15.6434 18.2777L15.827 18.543L15.8514 18.605L15.7698 18.9386L15.576 18.8502L15.5467 18.9238L15.5459 19.003L15.5241 19.0322L15.4835 19.0698L15.3781 19.2642L15.2566 19.3018L15.1953 19.3494L15.1501 19.3967L15.1144 19.4967L15.0772 19.5355L14.7491 19.8463L14.6058 19.9555L14.5636 19.9687L14.5019 20.0607L14.4383 20.0955L14.3894 20.1547L14.4045 20.1891L14.4556 20.2308L14.4161 20.29L14.4312 20.3232L14.4143 20.3616L14.359 20.4364L14.3375 20.4132L14.3394 20.4732L14.5313 20.6988L14.5429 20.7692L14.4526 20.9312L14.4286 21.0272L14.3864 21.0817L14.3943 21.2373L14.3262 21.4725L14.3319 21.7349L14.2363 21.903L14.1652 21.9338L14.1622 21.9674L14.1118 22.009L14.0659 22.141L14.0188 22.1826L14.0553 22.2234L14.0215 22.2374L13.9846 22.287L13.9865 22.3098L13.9485 22.325L13.9519 22.3954L13.8778 22.4254L13.8394 22.4754L13.8386 22.5138L13.8838 22.5594L13.8966 22.6206L13.8055 22.679L13.7645 22.6694L13.7389 22.6406L13.7002 22.6734L13.6761 22.7343L13.6479 22.7555L13.6419 22.8143L13.6671 22.8171L13.6897 22.7471L13.6994 22.8475L13.6859 22.8699L13.6697 22.8431L13.6471 22.8487L13.669 22.9063L13.6133 22.9171L13.6155 22.9475L13.5486 22.9591L13.4933 22.9351L13.5125 22.8643L13.5527 22.8595L13.5049 22.7951L13.4748 22.8439L13.4312 22.8631L13.3533 22.8447L13.3289 22.7987L13.3578 22.7707L13.3657 22.7643L13.3541 22.7279L13.3029 22.7443L13.2604 22.7191L13.1708 22.8063L13.1486 22.7659L13.0106 22.6534L12.8684 22.4798L12.7487 22.3678L12.6204 22.1714L12.5591 21.9662L12.5821 21.7221L12.5674 21.6381L12.3808 21.5309L12.2013 21.5533L12.1716 21.4757L12.1404 21.4633L12.1155 21.3917L12.1588 21.2937L12.1908 21.2897L12.3195 21.3201L12.342 21.2717L12.3134 21.1697L12.2491 21.0897L12.2216 21.0224L12.1701 20.8372L12.1644 20.686L12.1866 20.5372L12.146 20.4856L12.1603 20.39L12.2483 20.2656L12.2348 20.1591L12.2897 20.1087L12.3025 20.0547L12.377 19.9631L12.38 19.8663L12.3371 19.7943L12.3443 19.7551L12.4297 19.7119L12.5283 19.7047L12.6295 19.8847L12.6799 19.8015L12.7611 19.7707L12.8439 19.7023L12.8544 19.6499L12.9252 19.6383L13.0072 19.6887L13.0388 19.6523L13.0644 19.5603L13.0681 19.4567L13.0982 19.3979L13.3586 19.0622L13.3593 19.0062L13.2894 18.9022L13.289 18.8382L13.3511 18.773L13.4334 18.7582L13.4647 18.6902L13.4556 18.6482L13.4037 18.6082L13.3883 18.5482L13.3687 18.5334L13.3725 18.4557L13.3243 18.4109L13.3055 18.3425L13.2039 18.2677L13.1291 18.1629L13.1106 18.0473Z" fill="#D8B067"/>
<path d="M9.49774 19.2006L9.44206 18.909L9.44507 18.8542L9.40256 18.809L9.32242 18.4261L9.25169 18.5077L9.09744 18.4925L8.95711 18.525L8.64899 18.7298L8.37246 18.8538L8.22085 19.035L8.19677 19.037L8.0997 18.8794L8.0617 18.8626L7.99887 18.8502L7.93191 18.9134L7.89842 18.9946L7.89278 19.0894L7.90783 19.1194L7.96276 19.1518L7.98307 19.3446L8.05945 19.4883L8.13319 19.5851L8.20392 19.6435L8.28781 19.6759L8.29872 19.7459L8.27239 19.8755L8.21407 19.9519L8.15275 20.0183L8.03687 20.0995L7.95072 20.2224L7.84613 20.302L7.77803 20.326L7.58127 20.3676L7.50113 20.3452L7.52747 20.2732L7.46727 20.2088L7.54402 20.0475L7.52634 20.0143L7.37924 19.9203L7.30399 19.8071L7.1283 19.7023L7.00904 19.6523L6.94733 19.5987L6.75471 19.6727L6.68511 19.7679L6.61852 19.7519L6.53311 19.6727L6.4812 19.6611L6.36193 19.6879L6.24982 19.6591L6.21257 19.6715L6.18887 19.6835L6.18661 19.7247L6.2201 19.7875L6.20053 19.8299L6.04628 19.9587L5.98383 19.9615L5.98195 19.8627L5.95712 19.7607L5.98345 19.6435L5.97781 19.5863L5.91536 19.5195L5.71107 19.4075L5.45148 20.0771L5.54478 20.2564L5.59707 20.2916L5.6189 20.2276L5.66818 20.1775L5.96013 20.0087L6.00753 19.9999L6.07713 19.9487L6.11965 19.9271L6.13319 19.9475L6.13244 19.9543L6.05719 19.9923L6.0192 20.0563L6.01656 20.0667L5.98534 20.0455L5.90069 20.0847L5.78105 20.1851L5.76826 20.2152L5.69376 20.1972L5.65426 20.23L5.62454 20.3556L5.63432 20.4172L5.73327 20.5972L5.85291 20.7228L5.89504 20.7016L6.00828 20.648L6.12002 20.6644L6.14786 20.538L6.19113 20.452L6.19038 20.4368L6.20543 20.4248V20.4252L6.21972 20.43L6.21107 20.4356L6.20204 20.5116L6.1599 20.6024L6.19752 20.6876L6.26938 20.7128L6.33071 20.702L6.39015 20.5748L6.45035 20.5788L6.45749 20.5688V20.5692L6.56998 20.6308L6.61212 20.6576L6.61927 20.6768L6.5745 20.6632L6.58466 20.694L6.58842 20.7468L6.53838 20.7328L6.57487 20.706L6.56246 20.6524L6.52032 20.6236L6.40257 20.612L6.37999 20.6176L6.38338 20.6828L6.36269 20.728L6.27465 20.8068L6.31227 20.7436L6.24493 20.7496L6.16592 20.7276L5.99888 20.7008L5.92514 20.7084L5.92063 20.742L5.85968 20.7852L5.81227 20.852L5.91649 21.0104L6.03086 21.1149L6.2581 21.2201L6.44959 21.2317L6.45035 21.2057L6.40557 21.1501L6.36983 21.0341L6.36005 21.016L6.36269 20.9864L6.38037 20.9816L6.37322 21.0144L6.41084 21.1025L6.44207 21.0785H6.45561L6.45298 21.0873L6.41724 21.1305L6.42702 21.1505L6.52672 21.1953L6.54816 21.1869L6.61024 20.9948L6.64184 20.9364L6.67796 20.9116L6.65388 20.8984L6.77427 20.9032L6.79233 20.9092L6.83183 20.8908L6.84914 20.8456L6.87698 20.8304L6.91912 20.8372L6.95486 20.8736L6.97781 20.8472L6.98119 20.8564L6.97668 20.8864L6.9432 20.888L6.89128 20.8504L6.85328 20.9176L6.79384 20.9492L6.72574 20.9444L6.73402 20.9788L6.6979 20.9396L6.64824 20.954L6.62755 21.0749L6.6377 21.1277L6.65952 21.1709L6.67646 21.1997L6.80287 21.2433L6.79158 21.2753L6.73326 21.2305L6.70881 21.2449L6.70768 21.2729L6.70505 21.2817L6.68661 21.2869L6.69865 21.2281L6.68699 21.2233L6.67081 21.2097L6.65388 21.1913L6.63695 21.2105L6.60911 21.2305L6.59557 21.2517L6.56585 21.2565L6.52371 21.2793L6.55794 21.2977L6.63507 21.2937L6.52333 21.3321L6.50828 21.3573L6.47066 21.2929L6.44809 21.2949L6.43755 21.2941L6.34237 21.3001L6.29835 21.3253L6.29572 21.3097L6.26976 21.3069L6.25433 21.2945L6.22913 21.3033L6.1979 21.2861L6.19978 21.3837L6.27164 21.6889L6.26261 21.7553L6.34087 21.8457L6.41799 21.8105L6.51769 21.8037L6.48421 21.7497L6.48082 21.7049L6.48646 21.6953L6.50527 21.6001L6.51618 21.5989L6.51054 21.6229L6.51618 21.6393L6.49662 21.7469L6.52973 21.7689L6.52597 21.8301L6.49587 21.8425L6.57487 21.9266L6.68398 21.993L6.79873 22.0214L6.89993 22.0854L6.93755 22.1294L7.02484 22.1134L7.0602 22.1282L7.34161 21.9642L7.44018 21.981L7.56434 21.9154L7.62002 21.7925L7.64824 21.7725L7.72762 21.8237L7.76486 21.8902L7.83597 21.917L7.92288 21.8922L7.96915 21.8125L8.0824 21.8221L8.14334 21.7997L8.24981 21.7373L8.24003 21.6449L8.25358 21.6069L8.30888 21.6101L8.3386 21.6341L8.41799 21.6133L8.49361 21.4493L8.59669 21.4297L8.72799 21.4473L8.91911 21.3597L8.96426 21.3257L8.93529 21.2269L8.91385 21.1853L8.92175 21.1677L9.05418 21.0953L9.06133 20.8832L9.08766 20.824L9.16479 20.7672L9.19827 20.6972L9.22912 20.57L9.18811 20.4284L9.19676 20.4144L9.23476 20.3676L9.307 20.2116L9.31979 20.1063L9.386 19.9187L9.48006 19.7367L9.49436 19.4963L9.54214 19.3502L9.49774 19.2006Z" fill="#D8B067"/>
<path d="M12.0294 18.1597L12.023 18.1961L12.0475 18.2577L12.1983 18.4049L12.2653 18.4346L12.3183 18.4109L12.3556 18.3289L12.4026 17.9997L12.5324 17.9837L12.6434 17.9937L12.7156 17.9565L12.7822 17.8413L12.9105 17.8265L12.9489 17.7341L13.0151 17.7861L13.0467 17.9565L13.1107 18.0473L13.1291 18.1629L13.204 18.2677L13.3055 18.3425L13.3243 18.4109L13.3725 18.4558L13.3687 18.5334L13.3883 18.5482L13.4037 18.6082L13.4556 18.6482L13.4647 18.6902L13.4335 18.7582L13.3511 18.773L13.289 18.8382L13.2894 18.9022L13.3593 19.0062L13.3586 19.0622L13.0982 19.3979L13.0681 19.4567L13.0644 19.5603L13.0388 19.6523L13.0072 19.6887L12.9252 19.6383L12.8544 19.6499L12.8439 19.7023L12.7611 19.7707L12.6799 19.8015L12.6295 19.8847L12.5283 19.7047L12.4297 19.7119L12.3443 19.7551L12.3371 19.7943L12.38 19.8663L12.377 19.9631L12.3025 20.0547L12.2897 20.1088L12.2348 20.1592L12.2484 20.2656L12.1603 20.39L12.146 20.4856L12.0956 20.4772L11.9748 20.384L11.9485 20.3424L11.9402 20.2548L11.8936 20.1804L11.3635 20.146L11.3281 20.1048L11.3262 20.0755L11.3469 19.9611L11.3443 19.7867L11.4809 19.7463L11.5557 19.8143L11.5847 19.8179L11.6641 19.9183L11.6915 19.9211L11.716 19.8635L11.6859 19.7467L11.6803 19.6411L11.7807 19.5319L11.8108 19.4627L11.7736 19.197L11.7502 19.095L11.7096 19.0522L11.7104 19.003L11.8134 18.7586L11.8138 18.5258L11.7894 18.4798L11.7751 18.3481L11.7194 18.1521L11.962 18.1741L12.0294 18.1597Z" fill="#D8B067"/>
<path d="M7.83865 15.8214L7.86762 15.847L7.93346 15.8322L7.95979 15.8466L7.97033 15.8738L7.95603 15.9094L7.97334 15.9354L8.05535 15.9254L8.06551 15.9574L8.02939 16.0315L8.02074 16.1087L8.03128 16.1507L8.07191 16.1819L8.15204 16.2031L8.37552 16.0859L8.43421 16.1699L8.45866 16.1671L8.50607 16.2235L8.52676 16.2211L8.6005 16.3103L8.68553 16.3027L8.71337 16.2823L8.80968 16.2883L8.84956 16.3687L8.85219 16.4175L8.88417 16.4419L8.90223 16.5115L8.93007 16.5339L8.92104 16.5543L8.94587 16.6195L9.08695 16.5859L9.10313 16.6011L9.15806 16.5615L9.22841 16.5451L9.29425 16.6015L9.31494 16.6863L9.3695 16.7295L9.39922 16.81L9.40486 16.9464L9.3932 17.0232L9.33225 17.1808L9.33451 17.3472L9.26265 17.54L9.18139 17.6821L9.22954 17.7681L9.19455 17.9889L9.22804 18.0929L9.28108 18.1733L9.31984 18.4145L9.32247 18.4261L9.25174 18.5074L9.09786 18.4922L8.95753 18.5246L8.64941 18.729L8.37289 18.853L8.22127 19.0342L8.19681 19.0358L8.09975 18.8782L8.06175 18.8618L7.9993 18.849L7.93195 18.9126L7.89847 18.9934L7.89283 19.0882L7.90788 19.1182L7.9628 19.1506L7.98312 19.3435L8.05949 19.4867L8.13323 19.5835L8.20396 19.6419L8.28786 19.6743L8.29839 19.7439L8.27243 19.8735L8.21412 19.9499L8.15317 20.0163L8.0373 20.0975L7.95076 20.2204L7.84655 20.3L7.77845 20.324L7.58131 20.3656L7.50118 20.3428L7.52751 20.2708L7.46732 20.2064L7.54369 20.0451L7.52601 20.0119L7.37928 19.9179L7.30404 19.8047L7.12797 19.6999L7.00908 19.6499L6.94738 19.5963L6.75476 19.6703L6.68515 19.7655L6.61856 19.7495L6.53316 19.6703L6.48124 19.6587L6.36198 19.6855L6.25024 19.6567L6.213 19.6691L6.18892 19.6811L6.18666 19.7223L6.22014 19.7851L6.20058 19.8275L6.04671 19.9567L5.98425 19.9595L5.98237 19.8607L5.95754 19.7587L5.98425 19.6415L5.97861 19.5843L5.91616 19.5175L5.71187 19.4059L5.72654 19.3595L5.68027 19.269L5.63023 19.2274L5.57154 19.2238L5.50946 19.1062L5.43647 19.0518L5.41014 19.0494L5.39358 19.013L5.40299 18.9894L5.39246 19.007L5.42255 18.979L5.45867 18.8338L5.48049 18.8094L5.59148 18.7746L5.62308 18.625L5.68854 18.5566L5.72015 18.4782L5.73331 18.4093L5.71187 18.3513L5.6592 18.2601L5.61292 18.2345V18.1209L5.6434 18.0817L5.63963 17.9929L5.65807 17.9545L5.72391 17.8897L5.74084 17.8485L5.80592 17.8165L5.83565 17.7257L5.87176 17.6981L5.87515 17.62L5.89208 17.5888L5.97485 17.5484L6.05498 17.5644L6.14076 17.5492L6.20397 17.5636L6.45378 17.568L6.57755 17.5528L6.63926 17.5664L6.70472 17.6497L6.6291 17.7401L6.7081 17.9585L6.73594 17.9573L6.87778 17.8309L6.92819 17.8357L6.97296 17.8949L7.00344 17.9089L7.10427 17.8681L7.16107 17.7325L7.19682 17.534L7.20622 17.524L7.25099 17.5444L7.25137 17.4792L7.28448 17.4584L7.27883 17.426L7.23444 17.3748L7.25739 17.1892L7.30404 17.1228L7.36122 17.0936L7.37514 17.0596L7.36311 17.026L7.48463 16.7503L7.47898 16.6947L7.49666 16.6531L7.56288 16.5799L7.64377 16.5379L7.69757 16.3963L7.68139 16.3851L7.65242 16.2859L7.68515 16.1703L7.60953 16.1375L7.59448 16.1039L7.60125 16.0483L7.6543 15.9795L7.71299 15.9851L7.74648 15.9611L7.83865 15.8214Z" fill="#D8B067"/>
<path d="M5.59297 14.6861L5.6084 14.6793L5.63135 14.7461L5.6701 14.7657L5.83865 14.7157L5.87439 14.7305L5.92969 14.8129L5.96543 14.8325L6.05309 14.8233L6.13962 14.8481L6.21299 14.8249L6.26152 14.8469L6.30065 14.7605L6.28974 14.7353L6.32059 14.6465L6.47521 14.5929L6.69192 14.5893L6.65091 14.6061L6.64978 14.7773L6.67047 14.7953L6.76377 14.7385L6.90185 14.7129L6.98876 14.7237L7.00982 14.7517L6.99929 14.8065L6.94888 14.8321L6.86272 14.9525L6.85971 15.0149L6.90937 15.165L6.95903 15.2034L7.00719 15.2046L7.07679 15.2722L7.33337 15.3678L7.27619 15.4638L7.24534 15.4758L7.18891 15.4258L7.11893 15.4414L7.08695 15.5238L7.00493 15.5818L6.91464 15.681L6.87213 15.7666L6.80779 16.0907L6.74384 16.2475L6.62909 16.4247L6.42104 16.5643L6.33563 16.5407L6.29463 16.4335L6.30065 16.3991L6.26152 16.2715L6.2081 16.1827L6.14978 16.1619L5.88755 16.1743L5.59485 16.1567L5.42367 16.2147L5.39245 16.1467L5.36084 15.9951L5.25362 15.7506L5.22766 15.5594L5.27243 15.3998L5.24196 15.2874L5.24647 15.2314L5.31795 15.0613L5.3789 15.0013L5.46092 14.9637L5.53579 14.8981L5.59297 14.6861Z" fill="#D8B067"/>
<path d="M9.88226 17.7985L9.98497 17.5981L10.0192 17.6081L10.026 17.6993L10.0538 17.7013L10.1039 17.7817L10.1298 17.7953L10.1765 17.7821L10.3635 17.5664L10.5884 17.412L10.8209 17.1152L10.9127 17.0788L10.9932 16.9948L11.1178 16.9644L11.2096 16.9944L11.2513 17.0592L11.2464 17.0804L11.3495 17.3408L11.4583 17.4748L11.5929 17.5853L11.7028 17.6461L11.7818 17.6169L11.865 17.5324L11.9707 17.5464L12.0279 17.5925L12.0813 17.6781L12.1151 17.9029L12.0294 18.1597L11.962 18.1741L11.7194 18.1521L11.775 18.3481L11.7893 18.4798L11.8138 18.5258L11.8134 18.7586L11.7103 19.003L11.7096 19.0522L11.7502 19.095L11.7735 19.197L11.8108 19.4627L11.7807 19.5319L11.6802 19.6411L11.6859 19.7467L11.716 19.8635L11.6915 19.9211L11.664 19.9183L11.5847 19.8179L11.5557 19.8143L11.4808 19.7463L11.3443 19.7867L11.3318 19.7283L11.2547 19.6747L11.1528 19.6639L10.971 19.6995L10.9485 19.6687L10.9172 19.6619L10.9188 19.6403L10.8766 19.6107L10.836 19.6071L10.7735 19.6455L10.6836 19.5895L10.655 19.5503L10.6483 19.4899L10.5775 19.3383L10.5907 19.2522L10.5407 19.227L10.5185 19.1238L10.4955 19.1186L10.4244 19.1638L10.3973 19.1342L10.4161 19.0694L10.4007 19.0146L10.4315 19.003L10.4428 18.9646L10.3935 18.8906L10.3431 18.745L10.2897 18.673L10.1449 18.6266L10.1302 18.605L10.1464 18.511L10.1697 18.4778L10.1607 18.4394L10.2303 18.3401L10.2938 18.2945L10.3221 18.2513L10.3691 18.1133L10.3555 18.0817L10.2152 18.0137L10.1381 18.0105L10.0463 17.9541L9.9022 17.9593L9.89882 17.8145L9.88226 17.7985Z" fill="#D8B067"/>
<path d="M10.8255 11.5333L11.0557 11.5081L11.1761 11.5209L11.2333 11.5549L11.2758 11.5209L11.3439 11.3993L11.3838 11.3777L11.424 11.3949L11.4793 11.5193L11.5147 11.5317L11.5591 11.5001L11.5565 11.5977L11.5407 11.6225L11.5019 11.6253L11.482 11.6497L11.4026 11.9106L11.3996 12.1354L11.4188 12.223L11.3981 12.503L11.3236 12.7139L11.2664 13.0319L11.2367 13.0463L11.196 13.1823L11.1569 13.2479L11.0147 13.4327L10.7528 13.5784L10.5787 13.6208L10.4692 13.6688L10.0504 13.7388L9.99777 13.7572L9.7171 13.7512L9.64826 13.7596L9.59483 13.7408L9.52147 13.5444L9.53878 13.4896L9.51056 12.281L9.5241 11.7345L9.53689 11.7193L9.63772 11.7061L10.0527 11.6873L10.1189 11.7125L10.4647 12.0366L10.5 12.027L10.8255 11.5333Z" fill="#D8B067"/>
<path d="M19.4507 6.53834L19.485 6.50313L19.6419 6.44273L19.7938 6.44953L19.906 6.48993L19.988 6.54154L20.3074 6.79197L20.4861 7.048L20.6148 7.19122L20.5771 7.25282L20.6366 7.21202L20.775 7.34723L20.8002 7.54206L20.7551 8.01611L20.7841 8.27414L20.7953 8.29455L21.0504 8.29415L21.1012 8.42616L21.0779 8.54698L20.883 8.84941L20.9135 8.96263L21.0049 9.10304L21.0738 9.17585L21.2867 9.26946L21.4045 9.51629L21.4725 9.5803L21.6197 9.66831L21.5941 10.0776L21.6136 10.2256L21.5722 10.3188L21.3559 10.4788L21.0023 10.7052L20.8755 10.7624L20.6422 10.7988L20.4026 10.8176L19.9338 10.8168L19.7118 10.8409L19.5775 10.8124L19.5993 10.806L19.6042 10.768L19.5406 10.6832L19.4436 10.472L19.4206 10.2244L19.3744 10.0728L19.0301 9.78913L18.9361 9.73272L18.7747 9.5575L18.7622 9.49269L18.8115 9.41628L18.8864 9.37948L19.0331 9.35427L19.0644 9.28386L19.0493 9.16945L19.0674 8.82421L18.9891 8.62659L18.7182 8.52177L18.6851 8.47577L18.6524 8.18973L18.6095 8.12133L18.3318 8.00171L18.3394 7.94651L18.4752 7.74368L18.5734 7.44645L18.6099 7.24882L18.6618 7.16761L18.716 7.11321L18.8631 7.078L18.9191 7.0476L18.9948 6.97759L19.0914 6.82957L19.3187 6.69836L19.4206 6.54794L19.4507 6.53834Z" fill="#D8B067"/>
<path d="M10.684 19.9019L10.7596 19.9695L10.9605 20.0407L10.9996 20.0988L11.0173 20.1528L11.0316 20.4916L10.9853 20.5224L11.0421 20.62L11.0316 20.702L11.0452 20.84L11.029 20.9204L10.9955 20.9565L10.9511 21.0781L10.8826 21.1453L10.8036 21.3001L10.6874 21.7101L10.5907 21.7481L10.4206 21.7029L10.3405 21.7045L10.1844 21.7469L10.0079 21.7025L9.75509 21.7081L9.67458 21.6917L9.59332 21.6257L9.52861 21.4897L9.45938 21.4377L9.4496 21.3829L9.49061 21.2725L9.51017 21.0873L9.49324 21.0209L9.41348 20.9901L9.28331 21.0169L9.2265 20.9993L9.32996 20.4756L9.40859 20.4424L9.52146 20.2892L9.58241 20.2572L9.75208 20.334L9.85291 20.3232L9.94208 20.1388L9.97706 19.9967L10.044 19.9551L10.2814 19.9087L10.4838 19.9587L10.684 19.9019Z" fill="#D8B067"/>
<path d="M16.3318 2.69228L16.3992 2.73949L16.6249 2.76869L16.743 2.69668L16.822 2.53706L17.0222 2.43345L17.1411 2.40825L17.2472 2.35344L17.4853 2.27503L17.5685 2.32504L17.6486 2.51626L17.6745 2.69028L17.7295 2.79149L17.7716 2.76269L17.9921 2.68828L18.1798 2.77709L18.2562 2.75269L18.3258 2.78789L18.4089 2.92391L18.4751 3.38516L18.5079 3.50118L18.0918 3.77841L18.0873 3.7228L18.056 3.6572L18.0188 3.62439L17.8879 3.6464L17.7171 3.72441L17.4646 4.5481L17.4861 4.62331L17.4872 4.71332L17.4424 4.75093L17.208 4.85134L16.7964 5.00056L16.5907 5.12217L16.3589 5.14057L16.2378 5.3222L16.2193 5.49262L16.2701 5.51782L16.3683 5.51622L16.4481 5.47501L16.5515 5.46421L16.6196 5.48422L16.6745 5.66104L16.6941 5.83386L16.5997 6.03388L16.6204 6.10349L16.6648 6.14789L16.8092 6.11029L16.8269 6.2131L16.8664 6.31311L17.0658 6.60995L17.1783 6.68396L17.4187 6.71476L17.6339 6.76557L17.9676 6.78797L18.0067 6.84638L17.9654 6.95519L17.8958 7.0108L17.8416 7.042L17.6896 7.08161L17.5944 7.13601L17.5368 7.21242L17.5353 7.28443L17.5771 7.42165L17.5071 7.44445L17.4146 7.41965L17.3446 7.36524L17.2859 7.35844L17.0752 7.41404L16.8608 7.36644L16.81 7.31203L16.7795 7.23002L16.8107 6.91599L16.7904 6.82998L16.69 6.63395L16.6471 6.62195L16.5128 6.65835L16.2231 6.67756L16.1053 6.66916L16.0384 6.52234L15.9518 6.49314L15.8258 6.55154L15.5463 6.45513L15.3205 6.41113L15.2829 6.41873L15.2799 6.32912L15.3205 6.1803L15.5884 5.90506L15.5549 5.85906L15.4763 5.83786L15.3698 5.73224L15.3141 5.62223L15.2953 5.54222L15.2543 5.50262L15.0639 5.50862L15.0564 5.43021L15.0752 5.3466L15.2016 5.15898L15.2088 5.07697L15.2487 5.00336L15.2415 4.90495L15.1557 4.61771L15.1087 4.63891L15.0534 4.70892L14.9661 4.76573L14.8977 4.77293L14.8461 4.76293L14.8457 4.66012L14.8243 4.60251L14.7062 4.61251L14.6347 4.66012V4.61891L14.5726 4.59011L14.5925 4.5213L14.6369 4.46569L14.6399 4.24127L14.6098 4.12365L14.5752 4.09125L14.5056 4.06885L14.301 4.04644L14.2697 4.02964L14.2314 3.97403L14.2528 3.89363L14.2114 3.77041L14.0681 3.6856L14.0256 3.63039L14.0086 3.39357L13.7159 3.31276L13.5741 3.32676L13.424 3.40397L13.3589 3.45797L13.3356 3.56199L13.2652 3.7064L13.225 3.6616L13.2212 3.58319L13.0892 3.33196L13.0425 3.22715L13.0113 3.19914L12.8254 3.19434L12.7178 3.15714L12.6956 3.12833L12.693 2.97432L12.7212 2.8383L12.7205 2.73069L12.7378 2.71869L13.1287 2.66348L13.3307 2.70308L13.6776 2.67188L13.7216 2.72109L13.7746 2.90831L13.8002 2.94591L13.9003 3.01272L13.9752 3.03352L14.0737 2.97312L14.0978 3.03552L14.1539 3.06353L14.2923 3.04152L14.4496 2.97192L14.5696 2.8687L14.6083 2.76349L14.6302 2.73349L14.7054 2.69828L14.7058 2.66388L14.7536 2.64828L15.132 2.66588L15.4714 2.72269L15.6685 2.69268L15.8965 2.72389L16.2739 2.74189L16.3318 2.69228Z" fill="#D8B067"/>
<path d="M11.9093 6.37671L12.0256 6.37751L12.1174 6.35071L12.2747 6.19749L12.4552 6.08388H12.5173L12.6708 6.03427L12.7167 6.04187L12.7592 6.07468L12.7713 6.12468L12.6919 6.2855L12.7118 6.38831L12.751 6.43552L12.8838 6.50873L13.0248 6.55793L13.1569 6.72315L13.2145 6.74516L13.319 6.74396L13.4112 6.76756L13.6136 6.94478L13.7487 7.20161L13.763 7.35683L13.725 7.45444L13.687 7.65086L13.7321 7.89289L13.7246 7.9621L13.6975 8.00611L13.564 8.04451L13.5433 8.07611L13.5659 8.15932L13.6057 8.20213L13.8698 8.24093L13.9443 8.35095L14.0045 8.39295L14.1174 8.41856L14.1569 8.40695L14.137 8.56537L14.0485 8.73339L14.0587 8.7626L14.1637 8.8326L14.2589 8.94102L14.2449 8.95262L14.237 9.06863L14.2163 9.12584L14.1667 9.18825L14.0843 9.21745L14.0128 9.27346L13.9327 9.47228L13.9244 9.58069L13.9756 9.69351L14.0038 9.83432L13.9139 9.91313L13.9011 9.95714L13.9078 10.0359L13.8815 10.3484L13.9014 10.4324L13.8856 10.4752L13.8138 10.5372L13.7987 10.6604L13.7325 10.7116L13.7404 10.9013L13.7009 10.9573L13.7047 11.0037L13.8273 11.2149L13.924 11.3381L13.9883 11.3865L14.026 11.4701L14.0305 11.6065L13.9677 11.7642L13.9266 11.787L13.8269 12.0114L13.7024 12.2274L13.6716 12.2562L13.611 12.273L13.5181 12.2678L13.4955 12.1918L13.2946 11.9554L13.1513 11.9458L13.0948 11.8958L13.0448 11.887L12.9963 11.9262L12.9628 12.0022L12.8063 12.1922L12.7178 12.2562L12.6746 12.2646L12.6242 12.2262L12.6091 12.1738L12.611 11.7858L12.5723 11.7213L12.4135 11.6237L12.4014 11.4937L12.2912 11.3869L12.2498 11.3713L12.2118 11.3853L12.1498 11.4701L12.1144 11.5717L12.0275 11.6557H11.9861L11.9203 11.6133L11.8698 11.6233L11.778 11.5517L11.7431 11.5461L11.6866 11.5705L11.6603 11.5389L11.6377 11.4637L11.6095 11.4593L11.5591 11.5001L11.5147 11.5317L11.4793 11.5193L11.424 11.3949L11.3838 11.3777L11.3439 11.3993L11.2758 11.5209L11.2333 11.5549L11.1761 11.5209L11.0557 11.5081L10.8255 11.5333L10.7792 11.5165L10.6866 11.5405L10.7385 11.3753L10.611 11.2641L10.6144 11.1713L10.6355 11.1341L10.7276 11.0825L10.7574 11.0477L10.7799 10.9361L10.8962 10.8092L10.8744 10.734L10.7615 10.6692L10.7927 10.5484L10.6565 10.494L10.614 10.4632L10.6076 10.4268L10.6185 10.4012L10.6516 10.3844L10.7732 10.368L10.7969 10.3076L10.7931 10.184L10.7585 10.0287L10.7525 9.82632L10.74 9.78592L10.6885 9.75912L10.2043 9.76232L9.95337 9.6627L9.88904 9.5963L9.85029 9.51709L9.88452 9.46748L9.96616 9.41307L10.0271 9.34587L10.0591 9.28666L10.2186 9.18265L10.257 9.11104L10.2686 9.03183L10.1471 8.96182L9.96541 8.89541L10.0162 8.72979L10.0181 8.62698L9.94359 8.47496L9.88302 8.45736L9.79837 8.48416L9.74607 8.47856L9.73554 8.29854L9.71748 8.22173L9.69453 8.20133L9.51658 8.18133L9.47218 8.22933L9.49739 8.32494L9.47331 8.36415L9.32395 8.34175L9.03689 8.45616L8.99777 8.34975L8.95939 8.30974L8.84991 8.31494L8.7709 8.33935L8.67835 8.39935L8.46805 8.57937L8.26564 8.85981L8.21259 8.89541L8.15879 8.87141L8.11289 8.73059L7.99815 8.65058L7.98987 8.59578L8.00228 8.50337L8.07151 8.43136L8.06248 8.27894L8.09032 8.19893L8.08505 8.13972L8.03088 8.04451L8.04593 7.85289L8.1603 7.63766L8.2235 7.63286L8.27166 7.60246L8.37926 7.43604L8.57753 7.24762L8.78972 7.20961L9.08844 7.23241L9.26564 7.20761L9.3533 7.1472L9.46767 7.02319L9.52448 6.89397L9.54856 6.75196L9.61289 6.61554L9.64487 6.56994L9.74833 6.49913L9.83637 6.40391L9.87436 6.40512L10.0403 6.44032L10.1133 6.43312L10.1644 6.46912L10.1942 6.53873L10.1855 6.58154L10.0768 6.68915L10.0621 6.74196L10.301 6.81916L10.4609 6.99078L10.5267 6.99999L10.6279 6.93918L10.6799 6.86277L10.6118 6.72835L10.6072 6.64674L10.737 6.60314L10.8104 6.60754L10.9146 6.65154L10.9673 6.64794L10.9891 6.62634L10.9887 6.57073L11.0339 6.45192L11.149 6.34831L11.2013 6.33711L11.4564 6.42872L11.5335 6.49793L11.57 6.56113L11.6291 6.59234L11.8405 6.50273L11.8721 6.42072L11.9093 6.37671Z" fill="#D8B067"/>
<path d="M3.41503 1.70895L3.66408 1.70335L3.73406 1.73296L3.90825 1.66975L3.93685 1.68215L3.99892 1.76696L4.11894 1.83977L4.15882 1.88378L4.51848 2.00859L4.62947 2.0914L4.74459 2.1186L4.81307 2.1014L4.83677 2.079L4.93045 1.93138L4.97409 1.91898L5.01472 1.95418L5.02977 2.00419L4.96882 2.16141L4.97221 2.25742L4.91879 2.37663L4.90298 2.52465L4.97296 2.61066L5.04068 2.78188L5.03391 2.9147L4.985 3.15713L4.98651 3.23874L5.04971 3.45956L5.04068 3.7804L5.0166 3.84281L4.97823 3.84441L4.85897 3.7628L4.75814 3.7636L4.60953 3.81081L4.56137 3.87001L4.52338 4.02123L4.51811 4.41888L4.54783 4.94094L4.46807 5.33259L4.36988 5.55781L4.32624 5.74864L4.42217 5.89465L4.45076 5.91506L4.55535 5.92666L4.61969 5.87265L4.70998 5.75264L5.16145 5.53461L5.22503 5.52981L5.29614 5.56421L5.37288 5.53541L5.40185 5.60542L5.43722 5.60822L5.49817 5.56941L5.53052 5.55021H5.59899L5.75362 5.64022L5.99215 5.58182L6.023 5.48901L6.06288 5.4642L6.0926 5.4582L6.12683 5.4838L6.20546 5.49621L6.34128 5.4702L6.38191 5.49301L6.44549 5.62502L6.55347 5.62942L6.69079 5.72583L6.89658 5.69543L7.03917 5.71543L7.13285 5.69183L7.17875 5.65943L7.36122 5.68423L7.52487 5.75504L7.57792 5.84105L7.57754 5.93986L7.50042 6.19949V6.2475L7.70283 6.35591L7.77544 6.47632L7.82736 6.77956L7.83526 6.99879L7.78409 6.95478L7.71449 6.94038L7.58582 7.05079L7.53767 7.1388L7.38981 7.1552L6.93458 7.35843L6.53315 7.38603L6.47145 7.33603L6.45791 7.17521L6.47183 6.98278L6.45377 6.91158L6.31269 6.81276L6.28221 6.76236L6.24534 6.50193L6.18176 6.43792L6.07491 6.40951L5.93797 6.40792L5.56701 6.47152L5.27093 6.54473L5.10426 6.60954L4.92179 6.71315L4.87025 6.79596L4.87627 6.85757L4.909 6.90798L5.04557 6.98838L5.24873 7.07599L5.45039 7.0972L5.48989 7.17761L5.55422 7.17641L5.58357 7.20601L5.62571 7.46844L5.6163 7.51125L5.53428 7.56925L5.51058 7.62806L5.52902 7.68607L5.6321 7.75128L5.67612 7.80568L5.67349 7.88849L5.63549 7.9481L5.49252 7.9869L5.29614 8.09252L5.10802 8.07171L5.04971 8.08851L5.01585 8.11852L5.01435 8.50217L4.99742 8.55697L5.04444 8.67018L5.11254 8.74899L5.18252 8.87021L5.21073 8.96782L5.2002 9.02903L5.13361 9.11424L5.03428 9.17705L4.90712 9.18745L4.62797 9.28746L4.60915 9.52149L4.58809 9.54069L4.42556 9.52229L4.37213 9.48268L4.37138 9.39147L4.41013 9.26026L4.42104 9.10264L4.31081 8.99622L4.26867 8.89981L4.27545 8.64698L4.33037 8.51657L4.3996 8.43656L4.45528 8.39615L4.60276 8.33854L4.77657 8.16132L4.86799 7.73287L4.87552 7.57085L4.85633 7.54125L4.7476 7.49885L4.68816 7.50285L4.37213 7.27482L4.17499 7.20721L4.06438 7.21001L3.89509 7.24401L3.6622 7.22961L3.20434 7.26202L3.13436 7.25042L3.00306 7.19361L2.58771 6.95038L2.47899 6.93598L2.4455 6.95678L2.39697 6.95638L1.94061 6.54513L2.10352 5.72943L2.18328 5.54101L2.36725 5.37379L2.3364 5.24338L2.24535 5.17057L2.22391 4.97574L2.34317 4.82213L2.25438 4.47168L2.26905 4.26286L2.31683 4.09084L2.28185 3.45676L2.68892 3.08352L2.97974 2.84149L3.33828 2.25662L3.41653 1.87137L3.41503 1.70895Z" fill="#D8B067"/>
<path d="M13.0892 3.33195L13.2213 3.58318L13.225 3.66159L13.2653 3.70639L13.3356 3.56197L13.3589 3.45796L13.424 3.40395L13.5741 3.32675L13.716 3.31274L14.0087 3.39355L14.0256 3.63038L14.0681 3.68559L14.2115 3.7704L14.2529 3.89361L14.2314 3.97402L14.2698 4.02963L14.301 4.04643L14.5057 4.06883L14.5753 4.09124L14.6099 4.12364L14.64 4.24125L14.637 4.46568L14.5926 4.52129L14.5726 4.5901L14.6347 4.6189V4.6601L14.7062 4.6125L14.8243 4.6025L14.8458 4.6601L14.8462 4.76292L14.8977 4.77292L14.9662 4.76572L15.0535 4.70891L15.1088 4.6389L15.1558 4.6177L15.2416 4.90493L15.2487 5.00335L15.2088 5.07695L15.2017 5.15896L15.0753 5.34659L15.0565 5.4302L15.064 5.50861L15.2544 5.5026L15.2954 5.54221L15.3142 5.62222L15.3699 5.73223L15.4763 5.83784L15.555 5.85905L15.5884 5.90505L15.3206 6.18029L15.2799 6.3291L15.2829 6.41871L15.0753 6.50552L15.0324 6.50192L14.9895 6.45912L14.9259 6.47112L14.8326 6.53393L14.8074 6.57793L14.6291 6.74475L14.5294 6.90917L14.4263 7.03759L14.3495 7.05799L14.248 7.05159L14.2096 7.06879L14.1494 7.25161L14.1325 7.39163L14.1475 7.66726L14.1644 7.74687L14.3097 7.92009L14.3386 7.9869L14.3416 8.06691L14.2916 8.22093L14.1942 8.38455L14.1569 8.40695L14.1174 8.41855L14.0045 8.39295L13.9444 8.35094L13.8699 8.24093L13.6058 8.20213L13.5659 8.15932L13.5433 8.07611L13.564 8.04451L13.6975 8.0061L13.7246 7.9621L13.7322 7.89289L13.687 7.65086L13.725 7.45444L13.763 7.35683L13.7487 7.20161L13.6137 6.94478L13.4112 6.76756L13.3191 6.74395L13.2145 6.74515L13.1569 6.72315L13.0249 6.55793L12.8838 6.50872L12.751 6.43552L12.7118 6.38831L12.6919 6.2855L12.7713 6.12468L12.7593 6.07467L12.7167 6.04187L12.6708 6.03427L12.5173 6.08387H12.4553L12.2747 6.19749L12.1174 6.35071L12.0256 6.37751L11.9094 6.37671L11.7739 6.2695L11.7322 6.17909L11.7028 6.03467L11.76 5.92786L11.7626 5.83944L11.8311 5.77424L11.9722 5.73303L12.0644 5.66502L12.1663 5.66222L12.2021 5.63902L12.0839 5.32698L12.1091 5.16456L12.0305 4.98134L12.0629 4.72811L12.0365 4.23525L12.0467 4.11964L12.1287 4.02843L12.2886 3.93362L12.576 3.83841L12.7145 3.7612L12.7438 3.72719L12.7863 3.55157L12.8669 3.36715L12.915 3.34635L13.0892 3.33195Z" fill="#D8B067"/>
<path d="M8.26376 12.9583L8.34653 12.9811L8.45074 13.0443L8.58317 13.1743L8.68739 13.3471L8.78333 13.6772L8.9229 13.7692L9.02486 13.8768L9.23065 14.1676L9.33299 14.2692L9.39431 14.2792L9.40672 14.2652L9.43005 14.1496L9.4767 14.0484L9.48385 14.038L9.5211 14.0732L9.5384 14.0696L9.54066 13.9508L9.67497 13.8812L9.71711 13.7512L9.99777 13.7572L10.0504 13.7388L10.0279 13.8444L9.96955 13.9508V13.9852L10.0004 14.0528L10.0828 14.1592L10.1031 14.4061L10.0591 14.5945L10.0576 14.7821L9.99702 14.8489L9.96504 14.9337L9.95864 15.0833L9.9846 15.1057L10.1449 14.9877L10.4933 14.8249L10.9598 14.6901L11.2258 14.6621L11.3604 14.6893L11.6501 14.7121L11.6381 14.8257L11.6584 15.0605L11.7291 15.1894L11.8307 15.2938L11.8582 15.3678L11.8586 15.6438L11.88 15.9162L11.9267 16.1375L11.9744 16.1795L12.099 16.1667L12.1546 16.1855L12.1411 16.2579L12.0948 16.3063L12.0771 16.3579L12.0613 16.5151L11.9884 16.7483L11.8642 16.8728L11.6219 16.9976L11.5858 17.0552L11.573 17.232H11.5068L11.456 17.19L11.4252 17.194L11.2984 17.0624L11.2668 17.0392L11.2513 17.0592L11.2096 16.9944L11.1178 16.9644L10.9933 16.9948L10.9127 17.0788L10.8209 17.1152L10.5884 17.412L10.3635 17.5664L10.1765 17.7821L10.1298 17.7953L10.1039 17.7817L10.0538 17.7013L10.026 17.6993L10.0192 17.608L9.98498 17.598L9.88227 17.7985L9.83186 17.8733L9.77392 17.9077L9.68964 18.0001L9.64299 18.1649L9.64073 18.2741L9.57151 18.3745L9.51771 18.4101L9.38265 18.3837L9.31982 18.4145L9.28107 18.1733L9.22802 18.0929L9.19454 17.9889L9.22952 17.7681L9.18137 17.6821L9.26263 17.54L9.33449 17.3472L9.33223 17.1808L9.39318 17.0232L9.40484 16.9464L9.3992 16.8099L9.36948 16.7295L9.31493 16.6863L9.29423 16.6015L9.2284 16.5451L9.15804 16.5615L9.10311 16.6011L9.08694 16.5859L8.94585 16.6195L8.92102 16.5543L8.93005 16.5339L8.90221 16.5115L8.88415 16.4419L8.85217 16.4175L8.84954 16.3687L8.80966 16.2883L8.71335 16.2823L8.68551 16.3027L8.60048 16.3103L8.52674 16.2211L8.50605 16.2235L8.45865 16.1671L8.43419 16.1699L8.3755 16.0859L8.15202 16.2031L8.07189 16.1819L8.03126 16.1507L8.02072 16.1087L8.02938 16.0315L8.06549 15.9574L8.05534 15.9254L7.97332 15.9354L7.95601 15.9094L7.97031 15.8738L7.95978 15.8466L7.93344 15.8322L7.8676 15.847L7.83863 15.8214L7.82998 15.7902L7.65165 15.6234L7.5749 15.5154L7.60161 15.3498L7.50718 15.3326L7.33337 15.3678L7.07678 15.2722L7.00718 15.2046L6.95903 15.2034L6.90936 15.1649L6.8597 15.0149L6.86271 14.9525L6.94887 14.8321L6.99928 14.8065L7.00982 14.7517L6.98875 14.7237L6.90184 14.7129L6.76377 14.7385L6.67046 14.7953L6.64977 14.7773L6.6509 14.6061L6.69191 14.5893L6.72012 14.5317L6.68927 14.4353L6.51019 14.3321L6.5053 14.3084L6.41426 14.236L6.41162 14.2092L6.32095 14.1112L6.24872 13.9632L6.25511 13.9236L6.33563 13.8264L6.42178 13.67L6.56136 13.5084L6.6968 13.4167L6.76339 13.5216L6.84503 13.592L7.10989 13.7124L7.17912 13.7156L7.28295 13.7588L7.42253 13.7504L7.50267 13.778L7.65014 13.7732L7.88716 13.834L8.00116 13.814L8.06023 13.6636L8.0843 13.4039L8.17121 13.0923L8.26376 12.9583Z" fill="#D8B067"/>
<path d="M12.1392 1.40571L12.4839 1.45972L12.6791 1.51493L12.8138 1.59254L12.9237 1.69255L13.0264 1.72175L13.3985 2.1074L13.5222 2.07219L13.6321 2.08739L13.7461 2.1494L13.8322 2.21941L13.9018 2.30382L13.941 2.40143L14.0523 2.45624L14.2502 2.50704L14.7058 2.66386L14.7054 2.69827L14.6302 2.73347L14.6084 2.76348L14.5696 2.86869L14.4496 2.9719L14.2924 3.04151L14.1539 3.06351L14.0978 3.03551L14.0738 2.9731L13.9752 3.03351L13.9003 3.0127L13.8003 2.9459L13.7747 2.90829L13.7216 2.72107L13.6776 2.67186L13.3307 2.70307L13.1287 2.66346L12.7378 2.71867L12.7205 2.73067L12.7213 2.83828L12.693 2.9743L12.6957 3.12832L12.7179 3.15712L12.8255 3.19433L13.0113 3.19913L13.0425 3.22713L13.0892 3.33194L12.915 3.34634L12.8669 3.36715L12.7863 3.55157L12.7438 3.72719L12.7145 3.76119L12.576 3.8384L12.2886 3.93361L12.1287 4.02843L12.0467 4.11964L12.0365 4.23525L12.0629 4.72811L12.0305 4.98134L12.1091 5.16456L12.0839 5.32698L12.2021 5.63902L12.1663 5.66222L12.0644 5.66502L11.9722 5.73303L11.8311 5.77423L11.7626 5.83944L11.76 5.92785L11.7028 6.03467L11.7322 6.17908L11.7739 6.26949L11.9094 6.37671L11.8721 6.42071L11.8405 6.50272L11.6291 6.59233L11.57 6.56113L11.5335 6.49792L11.4564 6.42871L11.2013 6.3371L11.149 6.3483L11.0339 6.45192L10.9888 6.57073L10.9891 6.62634L10.9673 6.64794L10.9146 6.65154L10.8104 6.60753L10.7371 6.60313L10.6073 6.64674L10.6118 6.72835L10.6799 6.86276L10.628 6.93917L10.5268 6.99998L10.4609 6.99078L10.301 6.81916L10.0621 6.74195L10.0768 6.68914L10.1855 6.58153L10.1942 6.53873L10.1644 6.46912L10.1133 6.43311L10.0403 6.44031L9.87438 6.40511L9.87514 6.3119L9.92216 6.06787L9.8883 5.92025L9.81644 5.84424L9.81042 5.80144L9.82735 5.65102L9.88604 5.4854L9.9105 5.32538L9.96693 5.29178L10.2156 5.28658L10.2638 5.32138L10.4474 5.16256L10.4681 5.03455L10.5937 5.06695L10.6648 5.00214L10.646 4.92413L10.6024 4.86693L10.5015 4.77531L10.4064 4.72891L10.359 4.6805L10.4274 4.53529L10.4684 4.32886L10.4327 4.23005L10.4376 4.16284L10.4116 4.04083L10.3176 3.8328L10.3326 3.68999L10.2833 3.56157L10.2687 3.37155L10.231 3.16472L10.2337 2.92269L10.1964 2.67586L10.2506 2.24301L10.4334 2.18021L10.6321 1.96578L10.9594 1.99698L11.0941 1.96738L11.9745 1.40131L12.0226 1.38811L12.1392 1.40571Z" fill="#D8B067"/>
<path d="M2.34614 9.45547L2.54855 9.41866L2.97443 9.40466L3.11063 9.44187L3.63659 10.0763L3.71145 10.2004L3.92251 10.4596L4.00867 10.5228L4.07263 10.5156L4.11175 10.5348L4.12191 10.6524L4.09445 10.8384L4.0967 11.0537L4.12981 11.2009L4.17872 11.2165L4.46352 11.1849L4.49512 11.2145L4.5113 11.2793L4.50415 11.4165L4.51732 11.4725L4.54215 11.5133L4.66292 11.6097L4.77729 11.6253L4.81755 11.6473L4.85141 11.7317L4.87925 11.9498L4.95035 12.0026L5.0256 12.0022L5.37022 11.8598L5.46089 11.8534L5.69979 11.9738L5.75321 12.0178L5.99211 12.307L6.07676 12.3346L6.22574 12.2882L6.3958 12.3206L6.53613 12.385L6.5602 12.3742L7.00302 12.6671L7.19828 12.8139L7.23327 12.8735L7.28819 12.9019L7.35742 12.9259L7.54252 12.9387L7.67006 12.9023L7.95298 12.8899L8.26374 12.9583L8.17119 13.0923L8.08428 13.4039L8.0602 13.6636L8.00113 13.814L7.88714 13.834L7.65012 13.7732L7.50264 13.778L7.42251 13.7504L7.28293 13.7588L7.17909 13.7156L7.10987 13.7124L6.84501 13.592L6.76337 13.5216L6.69677 13.4167L6.56133 13.5084L6.42176 13.67L6.3356 13.8264L6.25509 13.9236L6.24869 13.9632L6.32093 14.1112L6.4116 14.2092L6.41423 14.236L6.50528 14.3084L6.51017 14.332L6.68925 14.4353L6.7201 14.5317L6.69188 14.5893L6.47518 14.5929L6.32055 14.6465L6.2897 14.7353L6.30061 14.7605L6.26149 14.8469L6.21295 14.8249L6.13959 14.8481L6.05306 14.8233L5.9654 14.8325L5.92966 14.8129L5.87435 14.7305L5.83861 14.7157L5.67006 14.7657L5.63131 14.7461L5.60836 14.6793L5.59294 14.6861L5.57827 14.6645L5.51544 14.6965L5.38414 14.7017L5.32845 14.5749L5.24644 14.5517L5.06811 14.6197L4.96841 14.6045L4.97142 14.6397L4.96465 14.6057L4.9511 14.6093L4.81755 14.6737L4.71973 14.6861L4.40859 14.6773L4.39016 14.6509L4.33561 14.6481L4.30889 14.6105L4.23741 14.4181L4.22274 14.3072L4.19339 14.2808L4.19226 14.2488L4.06209 14.1588L3.95111 13.9892L3.90521 13.8516L3.90182 13.7676L3.8721 13.6568L3.79798 13.5516L3.68512 13.2671L3.62266 13.1907L3.573 12.9791L3.54253 12.9159L3.58128 12.7359L3.65953 12.6739L3.6727 12.6098L3.69415 12.5862L3.81303 12.5026L3.90107 12.3762L3.89505 12.3242L3.84576 12.293L3.73929 12.365L3.65615 12.3682L3.51206 12.325L3.47067 12.3302L3.38038 12.2686L3.16593 12.199L3.04366 12.1022L2.98008 12.0206L2.95976 11.9214L2.80626 11.823L2.72951 11.8266L2.5858 11.9098L2.52222 12.0582L2.52146 12.1642L2.50453 12.2086L2.33824 12.3458L2.08843 12.4626L1.8706 12.5946L1.77692 12.6723L1.73441 12.6827L1.62116 12.7711L1.35781 12.9015L1.32282 12.9075L1.30288 12.8775L1.28595 12.8819L1.25172 12.8367L1.22576 12.8291L1.12907 12.8399L0.868345 13.0611L0.805892 13.0875L0.658789 13.2251L0.651641 13.2647L0.595208 13.2963L0.441709 13.3251L0.322447 13.3259L0.202432 13.4371L0.223501 13.3659L0.201304 13.3115L0.200927 13.1699L0.174216 13.1339L0.183245 13.0763L0.203937 13.0207L0.189265 12.9123L0.152771 12.8407L0.180611 12.7847L0.234411 12.7483L0.219362 12.6146L0.245322 12.6054L0.258113 12.5366L0.250589 12.5118L0.251341 12.4766L0.2773 12.411L0.293478 12.3486L0.278053 12.3182L0.267895 12.2874L0.254727 12.2562L0.259618 12.2094L0.269024 12.1402L0.275043 12.1126L0.477074 12.1198L0.503786 12.1134L0.543289 12.0662L0.676848 12.0438L0.701679 12.0766L0.74833 12.0946L0.804387 12.0906L0.990617 12.0214L1.00002 11.951L1.07339 11.7957L1.07978 11.6461L1.15164 11.5709L1.13885 11.3381L1.09069 11.1777L1.10235 11.1209L1.146 11.0457L1.23892 10.9905L1.26977 10.9172L1.36722 10.7724L1.39919 10.6484L1.43832 10.6248L1.51883 10.6348L1.59746 10.5656L1.60123 10.5168L1.55081 10.4144L1.53877 10.3372L1.55269 10.2836L1.59445 10.2348L1.8484 10.1267L1.97594 10.1364L2.01883 10.1243L2.09483 10.0419L2.09934 9.98993L2.18813 9.88632L2.20958 9.78991L2.21898 9.59108L2.25096 9.54708L2.32921 9.51268L2.34614 9.45547Z" fill="#D8B067"/>
<path d="M0.128345 18.5482L0.175373 18.5642L0.303665 18.547L0.376652 18.5826L0.506824 18.485V18.4205L0.522249 18.4161L0.655808 18.4374L1.17161 18.4298L1.21149 18.3893L1.24046 18.2313L1.31871 18.1653L1.3221 18.0713L1.37326 17.9709L1.44286 17.9809L1.57116 18.0381L1.6163 18.0701L1.64678 18.1273L1.81871 18.1081L1.79952 18.0501L1.85934 18.0077L3.27318 18.0233L3.31344 18.0317L3.33376 18.0677L3.23105 18.1829L3.22239 18.2205L3.24986 18.2701L3.25136 18.3285L3.33376 18.3721L3.4549 18.2857L3.5847 18.2693L3.62457 18.3285L3.62909 18.3665L3.58695 18.4089L3.48161 18.4614L3.46054 18.5026L3.46882 18.5306L3.50343 18.5602L3.60764 18.591L3.65016 18.6434L3.67198 18.649L3.71412 18.6258L3.91238 18.6518L3.92555 18.7018L3.91201 18.7962L3.55347 18.7502L3.47108 18.7234L3.01886 18.6498L2.69568 18.6314L2.32285 18.669L1.75438 18.6754L1.73293 18.6878L1.72578 18.7406L1.70584 18.7366L1.71487 18.7502L1.51096 18.7174L1.28447 18.7178L0.471836 18.747L0.114801 18.791L0.101257 18.6666L0.128345 18.5482Z" fill="#D8B067"/>
<path d="M11.5591 11.5001L11.6095 11.4593L11.6377 11.4637L11.6603 11.5389L11.6866 11.5705L11.743 11.5461L11.778 11.5517L11.8698 11.6233L11.9202 11.6133L11.9861 11.6557H12.0275L12.1144 11.5717L12.1497 11.4701L12.2118 11.3853L12.2498 11.3713L12.2912 11.3869L12.4014 11.4937L12.4135 11.6237L12.5722 11.7213L12.611 11.7858L12.6091 12.1738L12.6241 12.2262L12.6746 12.2646L12.7178 12.2562L12.8062 12.1922L12.9627 12.0022L12.9962 11.9262L13.0448 11.887L13.0948 11.8958L13.1512 11.9458L13.2946 11.9554L13.4955 12.1918L13.5181 12.2678L13.611 12.273L13.6716 12.2562L13.7024 12.2274L13.8269 12.0114L13.9266 11.787L13.9676 11.7641L14.0312 11.8302L14.1223 11.8346L14.2005 11.8686L14.2242 12.0478L14.2968 12.1842L14.3781 12.2234L14.5782 12.2458H14.7174L14.8217 12.1918L14.8608 12.2142L14.9364 12.3026L14.9067 12.4198L14.8051 12.5802L14.7257 12.6595L14.6727 12.6675L14.6177 12.7095L14.5594 12.8239L14.5011 12.8783L14.4891 12.9683L14.5132 13.0371L14.5918 13.1343L14.6038 13.1839L14.5925 13.4003L14.6467 13.4832L14.8405 13.5916L14.9782 13.6436L15.2863 13.6376L15.6535 13.526L16.0433 13.6992L16.1381 13.782L16.193 13.8892L16.0959 14.0364L15.9928 14.0692L15.8232 14.0312L15.8107 14.0148L15.7536 14.024L15.7159 13.9812L15.6509 13.9452H15.5809L15.5327 13.9796L15.4827 14.0652L15.4552 14.1796L15.5196 14.234L15.5959 14.3345L15.6091 14.4497L15.5888 14.4757L15.6264 14.5829L15.6223 14.6305L15.1998 14.9189L15.1542 14.9745L14.7107 14.6173L14.7103 14.6453L14.5613 14.6541L14.3777 14.6377L14.1196 14.5757L13.74 14.4269L13.6392 14.4093L13.5418 14.4165L13.4898 14.4277L13.3412 14.5157L13.2946 14.5721L13.2562 14.6865L13.2592 14.7873L13.436 15.253L13.4327 15.3074L13.3898 15.3514L13.1892 15.2622L13.0643 15.1502L13.0241 15.1558L12.8266 15.1161L12.6415 15.0033L12.3138 14.8613L11.9936 14.8113L11.6501 14.7121L11.3604 14.6893L11.2257 14.6621L10.9597 14.6901L10.4932 14.8249L10.1448 14.9877L9.98458 15.1057L9.95862 15.0833L9.96501 14.9337L9.99699 14.8489L10.0576 14.7821L10.0591 14.5945L10.1031 14.4061L10.0828 14.1592L10.0004 14.0528L9.96953 13.9852V13.9508L10.0278 13.8444L10.0504 13.7388L10.4692 13.6688L10.5786 13.6208L10.7528 13.5784L11.0147 13.4327L11.1569 13.2479L11.196 13.1823L11.2366 13.0463L11.2664 13.0319L11.3236 12.7139L11.398 12.503L11.4187 12.223L11.3995 12.1354L11.4026 11.9106L11.4819 11.6497L11.5019 11.6253L11.5406 11.6225L11.5564 11.5977L11.5591 11.5001Z" fill="#D8B067"/>
<path d="M2.44547 6.95678L2.47895 6.93598L2.58768 6.95038L3.00303 7.19361L3.13433 7.25042L3.20431 7.26202L3.66217 7.22961L3.89505 7.24402L4.06435 7.21001L4.17496 7.20721L4.3721 7.27482L4.68813 7.50285L4.74757 7.49885L4.8563 7.54125L4.87548 7.57086L4.86796 7.73287L4.77654 8.16133L4.60272 8.33855L4.45525 8.39615L4.39956 8.43656L4.33034 8.51657L4.27541 8.64698L4.26864 8.89981L4.31078 8.99623L4.42101 9.10264L4.4101 9.26026L4.37135 9.39147L4.3721 9.48268L4.42552 9.52229L4.58805 9.54069L4.60912 9.52149L4.62793 9.28746L4.90709 9.18745L5.03425 9.17705L5.13357 9.11424L5.20016 9.02903L5.2107 8.96782L5.18248 8.87021L5.1125 8.749L5.04441 8.67019L4.99738 8.55697L5.01431 8.50217L5.01582 8.11852L5.04968 8.08852L5.10799 8.07172L5.2961 8.09252L5.49249 7.98691L5.63545 7.9481L5.67345 7.88849L5.67608 7.80568L5.63207 7.75128L5.52898 7.68607L5.51055 7.62806L5.53425 7.56926L5.61627 7.51125L5.62567 7.46844L5.58353 7.20601L5.55419 7.17641L5.48986 7.17761L5.45035 7.0972L5.2487 7.076L5.04554 6.98839L4.90897 6.90798L4.87624 6.85757L4.87022 6.79596L4.92176 6.71315L5.10423 6.60954L5.27089 6.54473L5.56698 6.47152L5.93794 6.40792L6.07488 6.40952L6.18173 6.43792L6.24531 6.50193L6.28218 6.76236L6.31265 6.81277L6.45374 6.91158L6.47179 6.98279L6.45787 7.17521L6.47142 7.33603L6.53312 7.38603L6.93455 7.35843L7.38978 7.15521L7.53763 7.1388L7.58579 7.05079L7.71446 6.94038L7.78406 6.95478L7.83522 6.99879L7.96013 7.17481L8.10309 7.44044L8.16291 7.60406L8.16028 7.63766L8.04591 7.85289L8.03086 8.04451L8.08503 8.13972L8.0903 8.19893L8.06246 8.27894L8.07149 8.43136L8.00226 8.50337L7.98985 8.59578L7.99813 8.65058L8.11287 8.73059L8.15877 8.87141L8.21257 8.89541L8.26562 8.85981L8.46803 8.57938L8.67834 8.39935L8.77089 8.33935L8.84989 8.31494L8.95937 8.30974L8.99775 8.34975L9.03687 8.45616L9.32393 8.34175L9.47329 8.36415L9.49737 8.32495L9.47216 8.22933L9.51656 8.18133L9.69451 8.20133L9.71746 8.22173L9.73552 8.29854L9.74605 8.47856L9.79835 8.48416L9.883 8.45736L9.94357 8.47496L10.0181 8.62698L10.0162 8.72979L9.96539 8.89541L10.1471 8.96182L10.2686 9.03183L10.257 9.11104L10.2186 9.18265L10.0591 9.28666L10.0271 9.34587L9.96614 9.41307L9.8845 9.46748L9.85027 9.51709L9.88902 9.5963L9.95335 9.6627L10.2043 9.76232L10.6885 9.75912L10.74 9.78592L10.7524 9.82632L10.7585 10.0287L10.7931 10.184L10.7968 10.3076L10.7731 10.368L10.6516 10.3844L10.6185 10.4012L10.6076 10.4268L10.614 10.4632L10.6565 10.494L10.7927 10.5484L10.7615 10.6692L10.8743 10.734L10.8962 10.8092L10.7799 10.9361L10.7573 11.0477L10.7276 11.0825L10.6354 11.1341L10.6144 11.1713L10.611 11.2641L10.7385 11.3753L10.6866 11.5405L10.7792 11.5165L10.8254 11.5333L10.5 12.027L10.4646 12.0366L10.1189 11.7125L10.0527 11.6873L9.6377 11.7061L9.53687 11.7193L9.52408 11.7346L9.51054 12.281L9.53875 13.4896L9.52145 13.5444L9.59481 13.7408L9.64824 13.7596L9.71708 13.7512L9.67495 13.8812L9.54064 13.9508L9.53838 14.0696L9.52107 14.0732L9.48383 14.038L9.47668 14.0484L9.43003 14.1496L9.4067 14.2653L9.39429 14.2793L9.33296 14.2693L9.23063 14.1676L9.02484 13.8768L8.92288 13.7692L8.7833 13.6772L8.68737 13.3471L8.58315 13.1743L8.45072 13.0443L8.34651 12.9811L8.26374 12.9583L7.95298 12.8899L7.67006 12.9023L7.54252 12.9387L7.35742 12.9259L7.2882 12.9019L7.23327 12.8735L7.19828 12.8139L7.00302 12.6671L6.56021 12.3742L6.53613 12.385L6.3958 12.3206L6.22575 12.2882L6.07676 12.3346L5.99211 12.307L5.75321 12.0178L5.69979 11.9738L5.46089 11.8534L5.37022 11.8598L5.0256 12.0022L4.95035 12.0026L4.87925 11.9498L4.85141 11.7318L4.81755 11.6473L4.77729 11.6253L4.66292 11.6097L4.54215 11.5133L4.51732 11.4725L4.50415 11.4165L4.5113 11.2793L4.49513 11.2145L4.46352 11.1849L4.17872 11.2165L4.12981 11.2009L4.09671 11.0537L4.09445 10.8384L4.12191 10.6524L4.11176 10.5348L4.07263 10.5156L4.00867 10.5228L3.92252 10.4596L3.71145 10.2004L3.63659 10.0764L3.11063 9.44188L2.97444 9.40467L2.54855 9.41868L2.34615 9.45548L2.36458 9.33467L2.29084 9.30666L2.21183 9.22585L2.146 9.08424L2.26187 8.8054L2.25661 8.73779L2.29009 8.69219L2.38715 8.63898L2.6159 8.7666L2.65352 8.64178L2.66292 8.52217L2.76902 8.26494L2.74419 8.01691L2.64298 7.9409L2.53125 7.71687L2.57677 7.53285L2.58166 7.45124L2.53539 7.24922L2.45525 7.21641L2.47105 7.1384L2.46052 7.06039L2.4797 6.98239L2.44547 6.95678Z" fill="#D8B067"/>
<path d="M0.0363773 15.0173L0.260982 14.8457L0.392283 14.8373L0.463765 14.8745L0.510417 14.9461L0.525842 15.0033L0.531485 15.2626L0.552554 15.357L0.601839 15.4438L0.633441 15.449L0.668806 15.2266L0.690251 15.1766L0.707933 15.1586H0.759476L0.792583 15.183L0.812899 15.253L0.80688 15.3766L0.741417 15.6158L0.725992 15.6062L0.706805 15.629L0.726368 15.7754L0.806127 15.8758L0.920875 15.9746L0.959249 16.0963L1.07964 16.2767L1.19288 16.3711L1.28092 16.4163L1.43329 16.4275L1.49875 16.4079L1.60334 16.2491L1.64623 16.0795L1.70718 16.0203L1.805 16.0319L1.87083 16.2055L1.93065 16.2507L1.96903 16.2403L2.01154 16.1959L2.10447 16.1719L2.33773 16.1807L2.38174 16.2563L2.39416 16.4827L2.40958 16.5111L2.5217 16.5599L2.54578 16.6039L2.54201 16.6927L2.5834 16.8007L2.59882 16.9156L2.44946 17.076L2.43705 17.1212L2.45097 17.1324L2.68009 17.1224L2.78167 17.0992L2.89604 17.1044L3.01568 17.0548L3.07249 17L3.29408 16.9648L3.39717 16.9216L3.44984 16.8772L3.4852 16.8928L3.50477 16.9264L3.52696 17.0976L3.60108 17.0972L3.74592 17.018L3.87346 17.0416L3.9852 17.326L4.10033 17.2476L4.14171 17.2468L4.18498 17.2744L4.26473 17.2376L4.42124 17.2272L4.43291 17.2324L4.42162 17.2728L4.3934 17.4928L4.35352 17.6232L4.26511 17.7073L4.18761 17.7461L4.05104 17.8773L3.93893 18.0741L3.94005 18.2105L4.01568 18.2893L4.19664 18.3217L4.26549 18.3165L4.31891 18.2741L4.38099 18.1833L4.4472 18.1629L4.47166 18.1941L4.4709 18.3729L4.50288 18.5158L4.47579 18.5882L4.384 18.6146L4.35503 18.6602L4.31289 18.6874L4.2226 18.6918L4.17294 18.7454L4.20981 18.7626L4.31477 18.7526L4.43893 18.8222L4.44683 18.8654L4.41598 18.9342L4.26511 18.923L4.077 18.8334L3.91221 18.7962L3.92576 18.7018L3.91259 18.6518L3.71432 18.6258L3.67219 18.649L3.65036 18.6434L3.60785 18.591L3.50364 18.5602L3.46903 18.5306L3.46075 18.5026L3.48182 18.4613L3.58716 18.4089L3.6293 18.3665L3.62478 18.3285L3.5849 18.2693L3.4551 18.2857L3.33396 18.3721L3.25157 18.3285L3.25006 18.2701L3.2226 18.2205L3.23125 18.1829L3.33396 18.0677L3.31365 18.0317L3.27339 18.0233L1.85955 18.0077L1.79973 18.0501L1.81892 18.1081L1.64698 18.1273L1.61651 18.0701L1.57136 18.0381L1.44307 17.9809L1.37347 17.9709L1.3223 18.0713L1.31892 18.1653L1.24066 18.2313L1.21169 18.3893L1.17181 18.4297L0.656015 18.4373L0.522456 18.4161L0.507031 18.4205V18.4849L0.376858 18.5826L0.303871 18.547L0.175579 18.5642L0.128552 18.5482L0.144353 18.4169L0.186866 18.3697L0.210568 18.3081L0.160154 18.1585L0.209063 18.0721L0.288446 18.0001L0.29597 17.8905L0.28807 17.8521L0.207558 17.8409L0.178213 17.8253L0.162788 17.7909L0.156392 17.7181L0.201539 17.642L0.188747 17.5992L0.206806 17.4608L0.198529 17.4216L0.14962 17.416L0.129304 17.3916L0.134947 17.2772L0.187618 17.2128L0.302742 17.1416L0.210192 17.0524L0.192133 17.014L0.262487 16.926L0.284684 16.8492L0.259853 16.6627L0.202291 16.5963L0.197776 16.2087L0.286941 16.2055L0.317791 16.1863L0.319296 16.1575L0.303495 16.0175L0.202667 15.9358L0.19439 15.8654L0.157521 15.8046L0.146234 15.6366L0.15564 15.2782L0.144353 15.2402L0.113503 15.2262L0.0770092 15.1229L0.0134277 15.0361L0.0363773 15.0173Z" fill="#D8B067"/>
<path d="M7.33335 15.3678L7.50716 15.3326L7.6016 15.3498L7.57488 15.5154L7.65163 15.6234L7.82996 15.7902L7.83862 15.8214L7.74644 15.9611L7.71258 15.9851L7.65389 15.9795L7.60084 16.0483L7.59407 16.1035L7.60912 16.1371L7.68512 16.1699L7.65201 16.2855L7.68098 16.3851L7.69678 16.3963L7.64298 16.5379L7.56209 16.5799L7.49588 16.6531L7.4782 16.6947L7.48384 16.7504L7.36232 17.026L7.37436 17.0592L7.36044 17.0932L7.30363 17.1224L7.25698 17.1892L7.23365 17.3744L7.27805 17.4256L7.28407 17.4584L7.25096 17.4788L7.25058 17.544L7.20581 17.5236L7.19641 17.5336L7.16066 17.7321L7.10385 17.8677L7.00303 17.9089L6.97255 17.8945L6.92778 17.8353L6.87737 17.8305L6.73553 17.9569L6.70769 17.9581L6.62869 17.7397L6.70431 17.6497L6.63884 17.5661L6.57714 17.5524L6.45337 17.5681L6.20356 17.5637L6.14035 17.5492L6.05457 17.5645L5.97481 17.5488L5.89204 17.5893L5.87474 17.6205L5.87135 17.6989L5.83561 17.7261L5.80589 17.8169L5.7408 17.8489L5.72387 17.8905L5.65766 17.9549L5.63922 17.9933L5.64261 18.0821L5.61251 18.1217V18.2353L5.65879 18.2609L5.71108 18.3521L5.7329 18.4102L5.71936 18.479L5.68813 18.5574L5.62267 18.6258L5.59069 18.7754L5.48008 18.8098L5.45826 18.8346L5.42214 18.9794L5.39205 19.0074L5.40258 18.9898L5.39317 19.0138L5.40973 19.0502L5.43606 19.0522L5.50905 19.1066L5.57113 19.2242L5.62982 19.2282L5.67986 19.2699L5.72651 19.3603L5.71183 19.4067L5.45224 20.0764L5.2694 19.8387L4.9244 19.4691L4.36684 18.9906L4.26526 18.9242L4.41575 18.9354L4.44698 18.8662L4.43908 18.8234L4.31492 18.7538L4.20996 18.7638L4.17309 18.7466L4.22275 18.6926L4.31304 18.6886L4.3548 18.6614L4.38415 18.6158L4.47595 18.5894L4.50303 18.5166L4.47143 18.3737L4.47181 18.1949L4.44773 18.1637L4.38114 18.1841L4.31906 18.2749L4.26564 18.3173L4.19679 18.3225L4.0162 18.2901L3.94058 18.2117L3.93945 18.0753L4.05157 17.8785L4.18814 17.7473L4.26564 17.7089L4.35405 17.6249L4.39431 17.4948L4.42215 17.2744L4.5226 17.2176L4.60348 17.0188L4.76488 16.8812L4.85217 16.8804L4.9466 16.93L5.05608 17.0188L5.12418 17.02L5.14825 16.9696L5.1396 16.9044L5.15503 16.82L5.13772 16.6607L5.19641 16.3991L5.22801 16.3763L5.44848 16.3127L5.42515 16.2167L5.59633 16.1587L5.88903 16.1759L6.15126 16.1635L6.20958 16.1847L6.263 16.2731L6.30175 16.4007L6.29573 16.4351L6.33674 16.5427L6.42252 16.5663L6.63057 16.4263L6.74494 16.2491L6.80927 16.0923L6.87323 15.7682L6.91574 15.6826L7.00604 15.5834L7.08805 15.5254L7.12003 15.443L7.19001 15.4278L7.24644 15.4774L7.27729 15.4654L7.33335 15.3678Z" fill="#D8B067"/>
<path d="M4.40864 14.6773L4.71978 14.6861L4.8176 14.6737L4.95115 14.6093L4.9647 14.6057L4.97147 14.6397L4.96846 14.6045L5.06816 14.6197L5.24649 14.5517L5.3285 14.5749L5.38419 14.7017L5.51549 14.6965L5.57832 14.6645L5.59299 14.6861L5.5358 14.8981L5.46093 14.9637L5.37892 15.0013L5.31797 15.0614L5.24649 15.2314L5.24197 15.2874L5.27245 15.3998L5.22768 15.5594L5.25364 15.7506L5.36086 15.9951L5.39246 16.1467L5.42369 16.2147L5.44701 16.3111L5.22655 16.3743L5.19495 16.3975L5.13626 16.6591L5.15356 16.8184L5.13851 16.9028L5.14717 16.968L5.12309 17.0184L5.05499 17.0172L4.94551 16.9284L4.85108 16.8788L4.7638 16.8792L4.60277 17.0172L4.52188 17.2156L4.42143 17.2728L4.43272 17.2324L4.42106 17.2272L4.26455 17.2376L4.18479 17.2744L4.14152 17.2468L4.10014 17.2476L3.98502 17.326L3.87328 17.0416L3.74574 17.018L3.60089 17.0972L3.52678 17.0976L3.50458 16.9264L3.48502 16.8928L3.44965 16.8772L3.39698 16.9216L3.2939 16.9648L3.38193 16.5711L3.39811 16.3595L3.46094 16.0107L3.42821 15.9911L3.31346 15.7958L3.19646 15.7026L3.1863 15.6654L3.18103 15.6302L3.2243 15.5866L3.25364 15.5162L3.28637 15.1454L3.30895 15.1342L3.47072 15.1878L3.558 15.1578L3.58735 15.1182L3.59224 15.0261L3.63212 15.0033L3.73784 14.8705L3.85108 14.9441L3.98614 15.1666L4.06628 15.1294L4.09073 15.0722L4.16786 15.0257L4.20473 14.9701L4.21526 14.9857L4.28411 14.9253L4.37027 14.8949L4.37967 14.9101L4.41692 14.8565L4.42858 14.8053L4.40864 14.6773Z" fill="#D8B067"/>
<path d="M0.202484 13.4372L0.322499 13.3259L0.441761 13.3251L0.595259 13.2963L0.651693 13.2647L0.658841 13.2251L0.805944 13.0875L0.868397 13.0611L1.12912 12.8399L1.22581 12.8291L1.25177 12.8367L1.286 12.8819L1.30293 12.8775L1.32287 12.9075L1.35786 12.9015L1.62122 12.7711L1.73446 12.6827L1.77697 12.6723L1.87065 12.5947L2.08848 12.4626L2.33829 12.3458L2.50458 12.2086L2.52151 12.1642L2.52227 12.0582L2.58585 11.9098L2.72957 11.8266L2.80631 11.823L2.95981 11.9214L2.98013 12.0206L3.04371 12.1022L3.16598 12.199L3.38043 12.2686L3.47072 12.3302L3.51211 12.325L3.6562 12.3682L3.73934 12.365L3.84582 12.293L3.8951 12.3242L3.90112 12.3762L3.81308 12.5026L3.6942 12.5863L3.67275 12.6099L3.65959 12.6739L3.58133 12.7359L3.54258 12.9159L3.57305 12.9791L3.62272 13.1907L3.68517 13.2671L3.79804 13.5516L3.87215 13.6568L3.90187 13.7676L3.90526 13.8516L3.95116 13.9892L4.06214 14.1588L4.19232 14.2489L4.19344 14.2809L4.22279 14.3073L4.23746 14.4181L4.30894 14.6105L4.33566 14.6481L4.39021 14.6509L4.40864 14.6773L4.42858 14.8053L4.41692 14.8565L4.37967 14.9101L4.37027 14.8949L4.28411 14.9253L4.21527 14.9857L4.20473 14.9701L4.16786 15.0258L4.09074 15.0722L4.06628 15.1294L3.98615 15.1666L3.85108 14.9441L3.73784 14.8705L3.63212 15.0033L3.59224 15.0261L3.58735 15.1182L3.55801 15.1578L3.47072 15.1878L3.30895 15.1342L3.28637 15.1454L3.25364 15.5162L3.2243 15.5866L3.18103 15.6302L3.1863 15.6654L3.19646 15.7026L3.31346 15.7958L3.42821 15.9911L3.46094 16.0107L3.39811 16.3595L3.38193 16.5711L3.2939 16.9648L3.0723 17L3.01549 17.0548L2.89586 17.1044L2.78148 17.0992L2.6799 17.1224L2.45079 17.1324L2.43687 17.1212L2.44928 17.076L2.59864 16.9156L2.58322 16.8008L2.54183 16.6927L2.54559 16.6039L2.52151 16.5599L2.4094 16.5111L2.39398 16.4827L2.38156 16.2563L2.33754 16.1807L2.10429 16.1719L2.01136 16.1959L1.96885 16.2403L1.93047 16.2507L1.87065 16.2055L1.80481 16.0319L1.70699 16.0203L1.64605 16.0795L1.60316 16.2491L1.49857 16.4079L1.43311 16.4275L1.28074 16.4163L1.1927 16.3711L1.07946 16.2767L0.959066 16.0963L0.920691 15.9747L0.805944 15.8759L0.726185 15.7754L0.706621 15.629L0.725808 15.6062L0.741233 15.6158L0.806696 15.3766L0.812716 15.253L0.7924 15.183L0.759292 15.1586H0.70775L0.690067 15.1766L0.668623 15.2266L0.633258 15.449L0.601655 15.4438L0.55237 15.357L0.531302 15.2626L0.525658 15.0033L0.510233 14.9461L0.463582 14.8745L0.3921 14.8373L0.260798 14.8457L0.0361938 15.0173L0.0764496 14.9341L0.103914 14.7621L0.153951 14.5961L0.142665 14.5513L0.156585 14.4433L0.199098 14.3529L0.212642 14.2373L0.120844 14.1148L0.0768258 13.9552L0.0798356 13.8744L0.119339 13.7996L0.102785 13.7176L0.120844 13.6896L0.167871 13.6776L0.219414 13.5624L0.203236 13.5448L0.230701 13.506L0.231077 13.4632L0.202484 13.4372Z" fill="#D8B067"/>
<path d="M14.2589 8.94102L14.3164 8.92142L14.4361 8.92462L14.5407 8.95982L14.6388 9.12624L14.6682 9.31826L14.6667 9.81352L15.0794 9.72591L15.1193 9.73431L15.187 9.81112L15.2235 9.93634L15.2333 10.174L15.2246 10.2208L15.1351 10.3996L15.1317 10.4672L15.1543 10.5012L15.3018 10.558L15.3315 10.5864L15.3653 10.6328L15.4274 10.7956L15.4861 10.8492L15.5429 10.8704L15.7235 10.8813L15.9293 10.9405L16.307 10.9169L16.4722 10.8604L16.5809 10.652L16.76 10.6L16.7788 10.5332L16.7686 10.4636L16.6494 10.3012L16.6607 10.2436L16.7747 10.1724L17.0606 10.3304L17.1573 10.3508L17.5057 10.548L17.9221 10.7376L18.1546 10.8993L18.3939 11.0365L18.4526 11.1941L18.4605 11.2801L18.4413 11.4433L18.4699 11.6817L18.5564 11.8362L18.5959 12.077L18.5753 12.1302L18.5865 12.2202H18.6027L18.6106 12.4418L18.5437 12.5651L18.0854 12.7995L18.0139 12.7951L17.6558 12.8791L17.5621 12.9367L17.4846 13.1043L17.3063 13.3331L17.0388 13.4836L16.7498 13.7896L16.6584 13.8372L16.4925 13.8776L16.3379 13.8992L16.193 13.8892L16.1381 13.782L16.0433 13.6992L15.6535 13.526L15.2863 13.6376L14.9782 13.6436L14.8405 13.5916L14.6467 13.4832L14.5926 13.4004L14.6039 13.1839L14.5918 13.1343L14.5132 13.0371L14.4891 12.9683L14.5012 12.8783L14.5595 12.8239L14.6178 12.7095L14.6727 12.6675L14.7258 12.6595L14.8051 12.5803L14.9067 12.4198L14.9364 12.3026L14.8608 12.2142L14.8217 12.1918L14.7175 12.2458H14.5783L14.3781 12.2234L14.2969 12.1842L14.2243 12.0478L14.2006 11.8686L14.1223 11.8346L14.0313 11.8302L13.9677 11.7642L14.0305 11.6065L14.026 11.4701L13.9884 11.3865L13.924 11.3381L13.8273 11.2149L13.7047 11.0037L13.7009 10.9573L13.7404 10.9013L13.7325 10.7116L13.7987 10.6604L13.8138 10.5372L13.8857 10.4752L13.9015 10.4324L13.8815 10.3484L13.9078 10.036L13.9011 9.95714L13.9139 9.91314L14.0038 9.83433L13.9756 9.69351L13.9244 9.5807L13.9327 9.47228L14.0128 9.27346L14.0843 9.21745L14.1667 9.18825L14.2164 9.12584L14.237 9.06863L14.2449 8.95262L14.2589 8.94102Z" fill="#D8B067"/>
<path d="M10.4485 23.3855L10.3935 23.4411L10.3943 23.4719L10.371 23.4623L10.3793 23.4055L10.4334 23.3727L10.4485 23.3855ZM10.3303 23.3119L10.2656 23.2727L10.2449 23.2787L10.2242 23.2847L10.2163 23.2571L10.2487 23.2255L10.237 23.1987L10.2487 23.1727L10.2461 23.1307L10.2246 23.0983L10.1904 23.0915L10.1821 23.0979L10.1554 23.0299L10.1452 23.0231L10.1505 23.0047L10.1182 22.9703L10.108 22.9847L10.0719 22.9907L10.0647 23.0235L10.0862 23.0647L10.105 23.1067L10.1204 23.1883L10.1024 23.1791L10.0854 23.2043L10.1257 23.3435L10.1204 23.3943L10.1644 23.556L10.1554 23.5648L10.1844 23.5832L10.2619 23.566L10.2769 23.548L10.2818 23.5248L10.3476 23.5444L10.3488 23.4551L10.374 23.3927L10.3303 23.3119ZM10.1874 22.9015L10.2028 22.9199L10.2848 22.9235L10.292 22.8871L10.2765 22.8747L10.213 22.8867L10.1874 22.9015ZM10.2352 22.8031L10.2487 22.8483L10.2683 22.8559L10.2574 22.7799L10.2352 22.8031ZM10.506 23.1927L10.4519 23.0783L10.4142 23.0503L10.3529 23.0179L10.3428 23.0131L10.3112 23.0391L10.3356 23.0427L10.3849 23.0879L10.3902 23.0963L10.3815 23.1147L10.4011 23.1519L10.4056 23.2287L10.4541 23.2767L10.4884 23.2835L10.5136 23.2271L10.506 23.1927ZM10.7288 23.4375L10.6505 23.3327L10.6012 23.3979L10.6309 23.4295L10.6614 23.4199L10.6757 23.4563H10.7043L10.7126 23.4812L10.7566 23.4611L10.7972 23.5044L10.8672 23.4447L10.8439 23.4227L10.7288 23.4375ZM9.9797 23.1731L9.93757 23.1943L9.92703 23.2471L9.96992 23.2631L10.0241 23.3063L10.0628 23.3975L10.0519 23.2631L10.0384 23.2571L10.0482 23.1975L9.9797 23.1731ZM10.6618 23.2755L10.5726 23.2107L10.5143 23.1167L10.5132 23.1059L10.4951 23.0379L10.4771 23.0551L10.462 23.0407L10.4782 23.0139L10.4771 22.9543L10.4726 22.9515L10.4511 23.0255L10.3665 22.9975L10.3465 22.9935L10.3134 22.9503L10.3108 22.8895L10.2972 22.8779L10.2946 22.8595L10.2848 22.8527L10.2792 22.8267L10.298 22.7951L10.2611 22.7463L10.2306 22.7675L10.2179 22.8031L10.2423 22.8647L10.1648 22.8955L10.1494 22.9099L10.1144 22.9251L10.0948 22.9271L10.0572 22.9579L10.0399 22.9827L10.0365 22.9223L10.0147 22.9519L10.0064 22.9723L10.044 23.0383L10.0647 23.1363L10.0154 23.1543L9.9955 23.1627L9.94359 23.0983L9.91687 23.0223L9.86232 22.9259L9.80589 22.9055L9.82696 22.8435L9.80137 22.7547L9.83824 22.7223L9.85141 22.7031L9.83147 22.6763L9.76338 22.6667L9.69528 22.6222L9.68475 22.6859L9.65126 22.7087L9.63885 22.6779L9.59107 22.6723L9.57827 22.6587L9.5542 22.6663L9.52523 22.6675L9.5019 22.6326L9.49475 22.627L9.47406 22.6435L9.48121 22.6831L9.47594 22.6963L9.49325 22.7087L9.54103 22.7595L9.53651 22.8207L9.57338 23.0063L9.69453 23.1387L9.69528 23.1859L9.62718 23.2443L9.62342 23.2675L9.69189 23.53L9.71259 23.6628L9.80326 23.762L9.79234 23.7752L9.51996 23.8028L9.43569 23.7728L9.4323 23.6644L9.42327 23.5628L9.42854 23.5444L9.42741 23.5376L9.4101 23.4291L9.40296 23.3991L9.47594 23.2523L9.46879 23.1455L9.44359 23.1515L9.418 23.1555L9.26902 23.0515L9.22387 22.8763L9.17196 22.8015L9.09709 22.8007L8.85104 22.9023L8.81191 22.8919L8.79874 22.8143L8.81454 22.7559L8.69001 22.6983L8.6712 22.6651L8.67384 22.4914L8.74532 22.3846L8.77391 22.3026L8.77504 22.2518L8.72651 22.2582L8.69491 22.227L8.74494 22.0494L8.91387 21.7357L9.01808 21.7425L9.03877 21.7225L9.06699 21.6229L9.12493 21.5913L9.11627 21.5189L9.17572 21.4761L9.21146 21.4169L9.21033 21.3393L9.18663 21.2777L9.15803 21.2545L9.0858 21.2213L8.97519 21.2409L8.93606 21.2297L8.91462 21.1881L8.92252 21.1705L9.05495 21.0981L9.0621 20.886L9.08843 20.8268L9.16556 20.77L9.19904 20.7L9.22989 20.5728L9.18889 20.4312L9.19754 20.4172L9.2393 20.4684L9.32959 20.4768L9.22613 21.0001L9.28294 21.0177L9.41349 20.9909L9.49325 21.0221L9.5098 21.0885L9.49024 21.2733L9.44923 21.3837L9.45901 21.4385L9.52824 21.4905L9.59295 21.6269L9.67421 21.6929L9.75472 21.7093L10.0075 21.7037L10.1844 21.7485L10.3405 21.7057L10.4206 21.7045L10.5903 21.7497L10.687 21.7117L10.7077 21.7137L10.7325 21.7825L10.7348 21.8938L10.6445 22.0614L10.5162 22.2346L10.4647 22.383L10.4586 22.4266L10.4812 22.471L10.5358 22.5274L10.6035 22.5382L10.7212 22.5146L10.763 22.489L10.868 22.4842L10.9914 22.533L11.0595 22.5162L11.1701 22.5722L11.2585 22.6439L11.3318 22.7835L11.3555 22.8755L11.3194 23.0463L11.3413 23.2283L11.3221 23.2411L11.3206 23.2667L11.3435 23.3135L11.2976 23.3443L11.266 23.3155L11.2596 23.2763L11.2137 23.2655L11.193 23.2551L11.1832 23.2735L11.1309 23.3207L11.1091 23.3111L11.0993 23.2967L11.085 23.2959L11.0583 23.3115L11.0019 23.2171L10.9541 23.2555L10.9191 23.2411L10.8589 23.2211L10.8345 23.1799L10.8093 23.1875L10.7814 23.1531L10.7581 23.1735L10.751 23.2051L10.7175 23.2183L10.7303 23.2615L10.7404 23.3027L10.7495 23.3267L10.7788 23.3507L10.8078 23.3411L10.8292 23.3443L10.8616 23.3319L10.8552 23.4019L10.7886 23.4087L10.7344 23.4299L10.7066 23.3819L10.7028 23.3687L10.6633 23.3219L10.6577 23.2843L10.6618 23.2755ZM11.4714 23.4479L11.4455 23.4323L11.4293 23.4311L11.3962 23.4167L11.3954 23.4159L11.3804 23.4015L11.3646 23.4199L11.3525 23.4147L11.3657 23.3931L11.3326 23.3335L11.2987 23.3547L11.2596 23.3187L11.2461 23.3051L11.2397 23.2847L11.1874 23.2851L11.1776 23.2963L11.1313 23.3311L11.0813 23.3291L11.064 23.3307L11.0478 23.3215L11.0241 23.2963L11.0042 23.2839L11.0008 23.2515L10.9541 23.2651L10.9154 23.2659L10.9161 23.2491L10.8691 23.2355L10.8349 23.2171L10.7844 23.2135L10.7664 23.2231L10.7577 23.2463L10.757 23.2779H10.8217L10.8251 23.2811L10.8691 23.3239L10.8777 23.3507L10.8913 23.4055L10.9229 23.4179L10.9289 23.4019L10.9417 23.4131L10.982 23.4143L10.9842 23.4231L10.915 23.4527L10.8988 23.4587L10.8729 23.5548L11.0786 23.5856L11.2359 23.5488L11.459 23.5432L11.4519 23.4944L11.4714 23.4479ZM9.63998 22.7251L9.6697 22.7183L9.70431 22.6867L9.70732 22.6419L9.75585 22.6779L9.81605 22.7031L9.77993 22.7499L9.79611 22.8239L9.80626 22.8367L9.80514 22.8599L9.78256 22.8975L9.79084 22.9231L9.82884 22.9355L9.87624 22.9895L9.95412 23.1639L9.91913 23.1883L9.90333 23.2219L9.90897 23.2583L10.0275 23.3323L10.0501 23.4483L10.0832 23.5012L10.0787 23.5568L10.0967 23.6212L10.1524 23.6664L10.1103 23.722L10.0741 23.7364L10.0418 23.7164L10.0192 23.7328L9.77918 23.6772L9.7487 23.5756L9.76864 23.5508L9.74607 23.5516L9.6949 23.3959L9.66443 23.3199L9.66819 23.2375L9.72952 23.1751L9.72312 23.1211L9.65502 23.0547L9.59144 23.0087L9.56285 22.8463L9.55194 22.8231L9.55269 22.7503L9.52372 22.7071L9.57037 22.6775L9.60348 22.7027H9.62869L9.63998 22.7251Z" fill="#D8B067"/>
<path d="M6.713 0.00915527L7.19757 0.236382L7.96996 0.526417L8.12045 0.620428L8.29501 0.560821L8.43233 0.560021L8.75363 0.724841L9.35107 1.34731L9.57605 1.76416L9.46205 1.86818L9.19494 2.0282L8.83715 1.97699L8.76567 1.95059L8.70171 1.86858L8.61631 1.84137L8.42932 1.83377L8.40713 2.053L8.37966 2.12861L8.36085 2.13741L8.25927 2.0798H8.15431L7.97184 2.14221L7.89246 2.21502L7.88832 2.24302L7.91766 2.44865L7.9203 2.78629L7.86951 2.82629L7.71751 2.8919L7.34054 2.9235L7.11142 2.96151L6.89208 3.30475L6.82135 3.37956L6.70585 3.45597L6.70811 3.57118L6.76191 3.7568L6.78636 3.92682L6.75852 4.04804L6.66597 4.11604L6.4361 4.13725L6.38794 4.12565L6.20736 4.15125L6.10804 4.13885L5.93986 4.15205L5.58885 4.08524L5.55424 4.10924L5.51925 4.28967L5.52301 5.01815L5.49818 5.56942L5.43723 5.60822L5.40187 5.60542L5.3729 5.53541L5.29615 5.56422L5.22504 5.52981L5.16146 5.53461L4.70999 5.75264L4.6197 5.87265L4.55537 5.92666L4.45078 5.91506L4.42218 5.89466L4.32625 5.74864L4.36989 5.55782L4.46808 5.33259L4.54784 4.94094L4.51812 4.41888L4.52339 4.02123L4.56139 3.87002L4.60954 3.81081L4.75815 3.7636L4.85898 3.7628L4.97824 3.84441L5.01662 3.84281L5.04069 3.78041L5.04972 3.45957L4.98652 3.23874L4.98501 3.15713L5.03392 2.9147L5.04069 2.78189L4.97297 2.61067L4.903 2.52466L4.9188 2.37664L4.97222 2.25742L4.96884 2.16141L5.02978 2.00419L5.01473 1.95419L4.9741 1.91898L4.93046 1.93138L4.83678 2.079L4.81308 2.1014L4.74461 2.11861L4.62948 2.0914L4.5185 2.00859L4.15883 1.88378L4.11895 1.83977L3.99894 1.76696L3.93686 1.68215L3.90827 1.66975L3.73408 1.73296L3.6641 1.70336L3.41504 1.70896L3.41842 1.05128L3.57418 1.05048L4.1972 0.46721L5.14227 0.266786L5.23294 0.352396L5.44777 0.371599L5.69043 0.342795L5.8729 0.365198L6.07342 0.358797L6.27094 0.108367" fill="#D8B067"/>
<path d="M18.3939 11.0365L18.5666 10.9305L18.7867 10.9617L19.1851 10.7676L19.4274 10.8112L19.5775 10.8124L19.7118 10.8408L19.9338 10.8168L20.4025 10.8176L20.6422 10.7988L20.8472 11.2061L20.9022 11.2829L21.0771 11.3261L21.1554 11.3777L21.3533 11.7706L21.3359 11.8574L21.3487 12.011L21.4488 12.1286L21.6046 12.1874L21.6806 12.341L21.6903 12.4134L21.6527 12.5582L21.4274 13.0159L21.4417 13.2471L21.4251 13.3303L21.1949 13.5392L20.8702 14L20.6791 14.2192L20.5361 14.3481L20.3803 14.5393L20.3495 14.6025L20.4443 14.8717L20.5538 15.0597L20.6557 15.1578L20.7581 15.0781L20.8645 14.9177L20.9262 14.9025L20.9797 14.9197L21.0368 14.9645L21.1309 15.0906L21.2934 15.2442L21.3743 15.3482L21.4134 15.429L21.3916 15.6486L21.4195 15.7178L21.4338 15.8594L21.5068 16.0443L21.5049 16.1067L21.5508 16.1419L21.3649 16.3611L21.3239 16.4387L21.2904 16.5555L21.3047 16.7924L21.3393 16.9252L21.3894 17.01L21.3826 17.0616L21.3457 17.0908L21.1937 17.0768L21.1682 17.0952L21.0907 17.0976L21.0839 17.1632L21.0192 17.1932L20.9612 17.2704L20.8894 17.2876L20.8484 17.456L20.7686 17.482L20.7171 17.5908L20.7193 17.6109L20.7547 17.6089L20.772 17.6265L20.7754 17.6973L20.8085 17.7017L20.8156 17.7373L20.7784 17.7545L20.7551 17.8005L20.7904 17.8613L20.7874 17.9029L20.7152 17.9473L20.7069 18.0761L20.652 18.1337L20.6305 18.2101L20.5624 18.2413L20.4958 18.2081L20.4733 18.2297L20.4266 18.2357L20.4093 18.2613L20.4266 18.2965L20.4198 18.3657L20.4033 18.3857L20.2622 18.4129L20.2464 18.4217L20.2389 18.4766L20.1873 18.4694L20.0733 18.3881L19.9887 18.4285L19.9635 18.4005L19.8502 18.3741L19.7968 18.3253L19.775 18.3273L19.7291 18.3837L19.6527 18.3805L19.6618 18.0313L19.5854 17.9449L19.5011 17.9405L19.4123 18.0261L19.3055 18.0069L19.2355 17.9729L19.1817 17.8377L19.1373 17.7501L19.0914 17.7177L19.0474 17.7149L18.9981 17.6305L18.9936 17.6013L19.056 17.4096L18.956 17.336L18.8999 17.328L18.8773 17.3576L18.8138 17.2716L18.775 17.2684L18.7186 17.204L18.6896 17.2012L18.6761 17.1404L18.629 17.1152L18.614 17.1336L18.5587 17.1192L18.4891 17.056L18.5086 16.9788L18.4936 16.8952L18.4315 16.8428L18.4029 17.0332L18.4059 17.1488L18.3536 17.3896L18.3205 17.4296L18.2577 17.4524L18.2449 17.4872L18.2208 17.4916L18.1855 17.4528L17.5952 17.5136L17.4959 17.3904L17.5192 17.3204L17.4872 17.238L17.48 17.1908L17.4827 17.1584L17.4492 17.1456L17.1407 17.4416L17.1166 17.4864L17.0248 17.5552L16.9827 17.6289L16.8089 17.8141L16.7585 17.7853L16.6757 17.7813L16.6155 17.7725L16.5854 17.7481L16.5515 17.8333L16.5628 17.8649L16.5342 17.9037L16.5199 17.9757L16.5335 18.0569L16.5229 18.0997L16.5004 18.1145L16.462 18.2273L16.4112 18.4422L16.3924 18.4578L16.3668 18.4442L16.3171 18.459L16.2784 18.4061L16.2618 18.4245L16.3333 18.0969L16.3345 17.7465L16.3469 17.7033L16.3239 17.6741L16.4033 17.214L16.5278 16.9676L16.6573 16.8376L16.7735 16.7599L16.8081 16.7027L16.7972 16.4659L16.8867 16.2303L16.9089 16.1011L16.8879 16.0299L16.8977 15.9883L16.8536 15.9339L16.8589 15.9078L16.544 15.605L16.377 15.379L16.1836 15.183L15.9022 15.1122L15.5944 15.093L15.3134 15.131L15.0831 15.2362L15.0117 15.2134L15.1542 14.9745L15.1998 14.9189L15.6223 14.6305L15.6264 14.5829L15.5888 14.4757L15.6091 14.4497L15.5959 14.3345L15.5196 14.234L15.4552 14.1796L15.4827 14.0652L15.5327 13.9796L15.5809 13.9452H15.6509L15.7159 13.9812L15.7536 14.024L15.8108 14.0148L15.8232 14.0312L15.9928 14.0692L16.0959 14.0364L16.193 13.8892L16.3378 13.8992L16.4925 13.8776L16.6584 13.8372L16.7498 13.7896L17.0387 13.4836L17.3062 13.3331L17.4846 13.1043L17.5621 12.9367L17.6557 12.8791L18.0139 12.7951L18.0854 12.7995L18.5436 12.565L18.6106 12.4418L18.6027 12.2202H18.5865L18.5752 12.1302L18.5959 12.077L18.5564 11.8362L18.4699 11.6817L18.4413 11.4433L18.4605 11.2801L18.4526 11.1941L18.3939 11.0365Z" fill="#D8B067"/>
<path d="M19.8051 1.29811L20.2735 1.30571L20.6332 1.35372L21.038 1.52094L21.4778 1.62295L21.5805 1.68336L21.8096 1.89018L21.9895 2.0102L22.0489 2.0158L22.0602 1.98299L22.0978 1.97179L22.1599 1.99779L22.1832 1.97699L22.1625 1.92979L22.2186 1.93619L22.2825 1.97379L22.345 1.95699L22.3762 1.98539L22.3999 2.0282L22.4391 2.0034L22.5463 2.0278L22.5741 2.0478L22.6091 2.0526L22.6464 2.0522L22.6433 2.22062L22.5873 2.54146L22.6336 2.69548L22.6881 2.76829L22.8687 2.9219L22.8868 3.07152L22.8175 3.23994L22.7284 3.36316L22.4628 3.61559L22.4421 3.7036L22.5068 3.85682L22.5049 4.08844L22.4093 4.74012L22.4044 4.88014L22.468 5.17777L22.2904 5.54342L22.2961 5.62103L22.3202 5.63543L22.5049 5.62703L22.6227 5.77704L22.6543 5.91026L22.617 5.99467L22.4462 6.17189L22.3221 6.40792L22.2133 6.54194L22.1795 6.65635L22.181 6.77516L22.2096 6.94118L22.2005 7.0588L22.1219 7.18201L21.892 7.32803L21.4703 7.44884L21.3702 7.52565L21.3055 7.63887L21.2826 7.74968L21.2931 8.08532L21.1648 8.26654L21.0504 8.29415L20.7953 8.29455L20.7841 8.27414L20.7551 8.01611L20.8002 7.54206L20.775 7.34723L20.6366 7.21202L20.5771 7.25282L20.6148 7.19121L20.4861 7.048L20.3074 6.79197L19.988 6.54154L19.906 6.48993L19.7938 6.44952L19.6418 6.44272L19.485 6.50313L19.4507 6.53834L19.3364 6.52353L19.275 6.46233L19.3123 6.19109L19.3518 6.08228L19.3604 5.88546L19.0463 5.04896L19.0388 4.89414L19.003 4.78573L18.9906 4.67771L18.9827 4.40808L18.8638 4.22166L18.871 4.14925L18.842 3.86602L18.7991 3.7488L18.5079 3.50117L18.4752 3.38516L18.409 2.9239L18.3258 2.78789L18.2562 2.75268L18.1798 2.77709L17.9921 2.68828L17.7716 2.76269L17.7295 2.79149L17.6746 2.69028L17.6486 2.51626L17.5685 2.32503L17.4853 2.27503L17.2472 2.35344L17.1411 2.40824L17.0222 2.43345L16.8221 2.53706L16.7431 2.69668L16.6249 2.76869L16.3992 2.73948L16.3318 2.69228L16.6095 2.39224L16.7318 2.20822L16.8853 2.0678L17.0805 1.83377L17.2303 1.73216L17.5707 1.56974L18.175 1.53214L18.6471 1.34412L19.3838 1.30131L19.8051 1.29811Z" fill="#D8B067"/>
<path d="M9.72878 2.011L9.93382 2.27183L10.1249 2.26743L10.2506 2.24302L10.1964 2.67588L10.2337 2.92271L10.231 3.16473L10.2687 3.37156L10.2833 3.56158L10.3326 3.69L10.3176 3.83281L10.4116 4.04084L10.4376 4.16285L10.4327 4.23006L10.4684 4.32887L10.4274 4.5353L10.359 4.68052L10.4064 4.72892L10.5015 4.77533L10.6024 4.86694L10.646 4.92414L10.6648 5.00215L10.5937 5.06696L10.4681 5.03456L10.4474 5.16257L10.2638 5.32139L10.2156 5.28659L9.96693 5.29179L9.9105 5.32539L9.88604 5.48541L9.82735 5.65103L9.81042 5.80145L9.81644 5.84425L9.8883 5.92026L9.92216 6.06788L9.87513 6.31191L9.87438 6.40512L9.83638 6.40392L9.74835 6.49913L9.64489 6.56994L9.61291 6.61555L9.54857 6.75196L9.52449 6.89398L9.46769 7.02319L9.35331 7.14721L9.26565 7.20762L9.08845 7.23242L8.78973 7.20962L8.57754 7.24762L8.37928 7.43604L8.27168 7.60246L8.22352 7.63287L8.16031 7.63767L8.16295 7.60406L8.10313 7.44044L7.96016 7.17481L7.83526 6.99879L7.82736 6.77957L7.77544 6.47633L7.70283 6.35592L7.50042 6.2475V6.1995L7.57755 5.93987L7.57792 5.84105L7.52488 5.75504L7.36122 5.68424L7.17875 5.65943L7.13285 5.69184L7.03917 5.71544L6.89659 5.69544L6.69079 5.72584L6.55347 5.62943L6.4455 5.62503L6.38191 5.49301L6.34128 5.47021L6.20547 5.49621L6.12684 5.48381L6.0926 5.45821L6.06288 5.46421L6.023 5.48901L5.99215 5.58182L5.75362 5.64023L5.599 5.55022H5.53052L5.49817 5.56942L5.523 5.01816L5.51924 4.28967L5.55423 4.10925L5.58884 4.08524L5.93985 4.15205L6.10802 4.13885L6.20735 4.15125L6.38793 4.12565L6.43609 4.13725L6.66596 4.11605L6.75851 4.04804L6.78635 3.92683L6.7619 3.75681L6.7081 3.57118L6.70584 3.45597L6.82134 3.37956L6.89207 3.30475L7.11141 2.96151L7.34053 2.92351L7.7175 2.8919L7.86949 2.82629L7.92028 2.78629L7.91765 2.44865L7.88831 2.24302L7.89244 2.21502L7.97183 2.14221L8.15429 2.07981H8.25926L8.36084 2.13741L8.37965 2.12861L8.40712 2.053L8.42931 1.83378L8.6163 1.84138L8.7017 1.86858L8.76566 1.95059L8.83714 1.97699L9.19492 2.0282L9.46204 1.86818L9.57604 1.76417L9.72878 2.011Z" fill="#D8B067"/>
</g>
<defs>
<clipPath id="clip0_18_151">
<rect width="28" height="24" fill="white"/>
</clipPath>
</defs>
</svg>
