<svg width="62" height="64" viewBox="0 0 62 64" fill="none" xmlns="http://www.w3.org/2000/svg">
<g clip-path="url(#clip0_18_221)">
<path fill-rule="evenodd" clip-rule="evenodd" d="M29.2585 44.382C29.2585 42.6212 29.2718 41.5192 29.7964 39.923C30.0677 39.0976 30.5079 37.6449 31.0695 37.2221C32.8368 39.9346 33.2295 44.7107 32.2044 47.8394C31.9466 48.6263 31.4698 50.1332 30.9303 50.5394C30.1083 48.943 29.2583 46.8142 29.2583 44.382H29.2585ZM43.7963 63.9999H40.9191C35.2138 63.5542 31.5615 60.5932 30.9303 60.42L29.8421 61.1632C27.1223 62.8377 24.1605 63.9999 20.7594 63.9999C16.9514 63.9999 14.8052 63.5636 11.4647 62.097C8.27926 60.6983 5.64921 58.411 3.6601 55.6556C2.98712 54.7232 2.30877 53.7312 1.86953 52.6273C1.60814 51.9704 1.32307 51.5002 1.1309 50.9522C0.143613 48.1389 -0.000213623 45.7095 -0.000213623 42.6637C-0.000213623 39.6013 1.03184 36.8361 2.0428 34.7395C2.85225 33.0603 3.96188 31.7645 5.03571 30.3693C5.56983 29.6753 5.68303 29.7387 6.23685 29.1695C7.92338 27.4355 9.96659 26.3466 12.0727 25.2869C13.9488 24.3429 17.3073 23.6183 20.0629 23.6183C22.1859 23.6183 24.3709 24.1178 26.3167 24.7802L28.8367 25.9133C29.5716 26.3427 30.3707 26.8602 31.0697 27.3413C31.5398 26.9213 31.6279 26.8659 32.2267 26.5257C36.7478 23.9567 41.7141 22.9058 46.8707 24.1321C50.2675 24.9399 54.6069 27.2895 56.7645 30.1448L58.3783 32.2094C61.1239 36.4781 62 39.7594 62 45.0978C62 49.4118 59.9434 54.2693 57.1612 57.1649C56.5312 57.8206 55.4832 58.5155 55.1118 57.1732C54.8882 56.365 57.0226 54.4738 58.1935 52.0683C61.1368 46.0219 60.7931 39.1123 56.904 33.5811C55.7124 31.8861 54.3491 30.401 52.7251 29.1411C52.2325 28.7592 52.0173 28.6165 51.4716 28.2813C49.1915 26.8804 46.563 25.6228 43.4696 25.6228C38.7377 25.6228 36.7609 26.301 32.7415 28.4868C32.9556 29.3104 34.0942 29.9307 34.5528 30.6349C35.6483 30.0391 36.6219 29.4198 37.9837 29.0059C39.16 28.6486 41.0781 28.254 42.3302 28.3599C43.8098 28.4852 45.4052 28.6584 46.6597 29.0746C47.8348 29.4645 48.909 30.0511 50.0192 30.6338C51.2898 31.3008 52.5275 32.4314 53.4685 33.5326C53.6966 33.7995 53.8614 33.9158 54.0796 34.1932C54.4766 34.6982 54.7987 35.1129 55.1474 35.6731C57.8412 39.9996 58.0176 45.5664 56.0504 50.2953L54.6565 52.729C53.5781 54.1923 52.3797 55.411 50.9552 56.5143C48.416 58.481 45.1973 59.2741 41.9371 59.2741C38.236 59.2741 34.2711 57.4632 31.7266 54.7326L30.834 53.6453C29.9666 52.5907 29.2795 51.5118 28.74 50.2127C27.6821 47.6654 27.3079 45.7156 27.3079 42.8064C27.3079 39.3948 28.5859 37.606 29.8159 35.217C29.1309 34.7457 28.5272 33.5754 27.7259 33.3554C27.3599 34.7643 24.5213 37.5529 24.5213 43.6656C24.5213 52.1213 30.6132 59.7476 38.5362 61.6239C42.7101 62.6122 47.3293 62.0234 51.0212 59.7324C51.6365 59.3505 52.6513 58.4149 53.3618 58.4149C53.8232 58.4149 54.3372 58.8856 54.3372 59.4174C54.3372 60.5777 50.4362 62.3462 49.4626 62.7126C47.4423 63.4732 45.5469 63.8645 43.7965 63.9997L43.7963 63.9999ZM35.8066 32.21C37.8771 31.0841 39.5382 30.3484 42.2156 30.3484C44.5349 30.3484 47.6866 31.3267 49.4829 32.6165C52.4736 34.7637 53.8104 36.5408 54.9493 40.0293C55.9042 42.954 55.5167 47.1115 54.1999 49.6825C52.8186 52.3799 50.5969 54.6975 47.9281 55.9811C44.3324 57.7104 40.7397 57.6754 37.1172 56.2088C36.5964 55.998 36.2419 55.6705 35.8064 55.5511C36.228 54.7322 36.6662 54.2248 37.1074 53.3082L38.1753 50.8257C39.239 48.0765 39.2897 45.9684 39.2897 42.9497C39.2897 38.576 37.5194 34.8391 35.8066 32.21ZM26.1931 55.5511L23.6667 56.6776C20.6879 57.7825 16.9884 57.2967 14.1682 56.0248L12.2308 54.8657C9.0905 52.6864 6.54817 48.6547 6.54817 44.6682C6.54817 41.3374 7.03038 38.6371 9.0543 35.9315C10.3495 34.2 10.7754 33.9473 12.3583 32.7404C15.1348 30.6232 19.6819 29.7563 23.2854 30.9027C25.2598 31.5308 24.6238 31.3568 26.1929 32.2102C24.0373 35.5187 22.5849 39.6848 22.5851 43.8093C22.5851 47.2364 23.7001 51.4174 25.4688 54.291C25.7364 54.7257 26.0599 55.0385 26.1931 55.5515V55.5511ZM4.59766 43.8089C4.59766 55.2904 15.9184 61.4601 24.1806 58.6376C24.7268 58.4509 25.3552 58.1839 25.8689 57.9383C26.3481 57.7091 27.0436 57.2368 27.4472 57.126L29.3977 59.1307C29.0896 59.2984 28.8976 59.3791 28.5881 59.5873L25.9978 60.9344C25.0596 61.3235 22.8414 61.9021 21.7252 61.9845C14.5557 62.5141 7.85753 59.1264 4.39794 53.1784C3.70427 51.986 3.15741 50.9158 2.6945 49.4875C2.49298 48.8657 2.34279 48.0753 2.19697 47.4214C1.74261 45.3842 1.86854 42.2969 2.28669 40.1444C3.13095 35.7986 5.43794 32.1924 8.75511 29.4658C9.0163 29.2511 9.28128 29.0941 9.57251 28.8739C10.0921 28.4811 10.629 28.1832 11.2039 27.8299C11.7709 27.4815 12.3764 27.2484 13.016 26.9716C16.4304 25.4928 20.2449 25.2865 23.8804 26.138C26.3946 26.7271 28.0223 27.6649 29.9834 29.0301C34.3998 32.1043 37.4786 38.2699 37.4786 44.0949C37.4786 48.3673 35.9471 51.6944 34.2741 54.262C33.3256 54.0017 32.6653 52.7627 32.1841 52.4004C36.8031 45.311 34.7837 36.2331 28.5819 31.4727C26.8657 30.1554 25.9616 29.7183 23.8806 29.0014C20.7333 27.9174 15.9088 28.4629 13.0021 29.9644C11.754 30.6091 10.8218 31.2936 9.78517 32.2429L7.98385 34.1147C7.12786 35.1495 6.47039 36.291 5.89628 37.5537C5.1666 39.1585 4.59766 41.5147 4.59766 43.8085V43.8089Z" fill="white"/>
<path fill-rule="evenodd" clip-rule="evenodd" d="M22.9888 4.7163C22.9888 5.12153 23.431 5.71875 23.8247 5.71875C24.3839 5.71875 27.3503 4.25647 29.2626 7.00315C29.6269 7.52636 29.8958 8.01645 29.9509 8.87312C30.0932 11.086 31.8499 10.8341 32.0286 9.28204C32.2424 7.42332 32.9104 5.87721 35.1243 5.44519C36.454 5.18573 37.8043 5.50571 38.6305 6.2532C41.9661 9.27079 38.8095 13.4456 36.4685 15.85C36.0274 16.3029 35.6678 16.7114 35.2162 17.1406L31.0695 20.6112C28.1578 18.6071 22.0134 13.2749 22.0134 9.87149C22.0134 7.69627 22.3619 8.11867 22.3886 7.41595C22.4343 6.21538 20.0629 4.80094 20.0629 9.87149C20.0629 11.6055 20.9505 13.1491 21.6778 14.226L25.0489 18.2076C26.0099 19.1582 30.2929 22.7593 30.9305 22.7593C31.5724 22.7593 32.917 21.6593 33.5593 21.1651C36.3042 19.0541 41.9373 13.6398 41.9373 10.1579C41.9373 8.53802 42.0467 8.07492 41.3823 6.71896C41.0761 6.09414 40.6683 5.40675 40.1493 4.97923C34.9214 0.671103 31.2939 5.75535 30.9307 6.0054C28.3995 2.1205 22.989 3.07491 22.989 4.71671L22.9888 4.7163Z" fill="#D8B067"/>
<path fill-rule="evenodd" clip-rule="evenodd" d="M12.5394 9.87134C12.5394 11.1717 14.4405 10.8736 15.6045 10.8736C17.0678 10.8736 17.1376 8.86889 15.6045 8.86889C14.4403 8.86889 12.5394 8.57099 12.5394 9.87134Z" fill="#D8B067"/>
<path fill-rule="evenodd" clip-rule="evenodd" d="M45.2809 9.72824C45.2809 11.1815 46.7482 10.8738 48.346 10.8738C49.8133 10.8738 49.8133 8.86911 48.346 8.86911C47.4544 8.86911 45.2809 8.60475 45.2809 9.72824Z" fill="#D8B067"/>
<path fill-rule="evenodd" clip-rule="evenodd" d="M14.9078 18.7495C14.9078 20.487 16.8187 19.4525 17.5299 19.01C17.9936 18.7215 18.809 18.4067 18.809 17.7471C18.809 16.9094 18.2039 16.7446 17.5552 16.7446C17.3572 16.7446 16.3558 17.3903 16.1024 17.5426C15.6084 17.8397 14.908 18.0294 14.908 18.7493L14.9078 18.7495Z" fill="#D8B067"/>
<path fill-rule="evenodd" clip-rule="evenodd" d="M14.9078 0.993132C14.9078 1.886 17.3974 2.99784 17.9729 2.99784C18.3666 2.99784 18.8088 2.40062 18.8088 1.99538C18.8088 1.1017 14.9076 -1.28289 14.9076 0.992927L14.9078 0.993132Z" fill="#D8B067"/>
<path fill-rule="evenodd" clip-rule="evenodd" d="M44.1663 2.99791C44.4724 2.99791 47.0922 1.92472 47.0922 0.993207C47.0922 -1.13785 44.4201 0.771166 43.8733 1.12181C43.4676 1.38168 43.6602 1.15207 43.4106 1.51744C42.996 2.12406 43.3077 2.99812 44.1663 2.99812V2.99791Z" fill="#D8B067"/>
<path fill-rule="evenodd" clip-rule="evenodd" d="M46.1168 19.7519C46.4639 19.7519 46.5254 19.7262 46.7468 19.5403C47.899 18.5732 46.2137 17.7288 45.9851 17.5961C44.9214 16.9784 44.8874 16.7448 44.0268 16.7448C43.6156 16.7448 42.5357 17.7638 43.8731 18.6211C44.2801 18.8819 45.5664 19.7519 46.1166 19.7519H46.1168Z" fill="#D8B067"/>
</g>
<defs>
<clipPath id="clip0_18_221">
<rect width="62" height="64" fill="white"/>
</clipPath>
</defs>
</svg>
