<svg width="217" height="217" viewBox="0 0 217 217" fill="none" xmlns="http://www.w3.org/2000/svg">
<path d="M107.565 212.46C165.245 212.46 212.004 165.701 212.004 108.021C212.004 50.3402 165.245 3.58105 107.565 3.58105C49.8842 3.58105 3.125 50.3402 3.125 108.021C3.125 165.701 49.8842 212.46 107.565 212.46Z" fill="#B7154A"/>
<path d="M108.021 216.068C48.4516 216.068 0 167.616 0 108.047C0 48.4783 48.4783 0 108.021 0C167.563 0 216.041 48.4516 216.041 108.021C216.041 167.59 167.59 216.068 108.021 216.068ZM108.021 7.1889C52.4336 7.1889 7.1889 52.4068 7.1889 108.021C7.1889 163.634 52.4336 208.879 108.047 208.879C163.661 208.879 208.906 163.634 208.906 108.021C208.906 52.4068 163.634 7.1889 108.021 7.1889Z" fill="#EDA8BE"/>
<g opacity="0.56">
<mask id="mask0_2336_1423" style="mask-type:luminance" maskUnits="userSpaceOnUse" x="46" y="54" width="125" height="112">
<path d="M165.877 59.2743C159.65 52.9139 146.555 51.738 140.489 59.2743C130.039 72.2357 119.617 85.1971 109.167 98.1585C104.197 104.332 99.2259 110.505 94.2552 116.679C92.4914 118.87 90.3801 122.157 88.1085 125.204C87.6542 124.749 87.1999 124.295 86.7723 123.814C83.405 120.34 80.011 116.866 76.6437 113.418C60.5021 96.8223 35.1405 122.237 51.2554 138.807C59.5935 147.358 68.0918 159.331 79.3696 163.847C91.7431 168.791 102.727 162.832 110.691 153.184C129.318 130.522 147.464 107.485 165.877 84.6359C171.997 77.0461 173.146 66.7304 165.877 59.2743Z" fill="white"/>
</mask>
<g mask="url(#mask0_2336_1423)">
<rect x="46.043" y="54.0283" width="124.878" height="111.602" fill="#C4C4C4"/>
</g>
</g>
<path d="M164.943 55.6932C158.717 49.3328 145.622 48.1569 139.555 55.6932C129.106 68.6546 118.683 81.616 108.234 94.5775C103.263 100.751 98.2924 106.924 93.3216 113.098C91.5578 115.289 89.4465 118.576 87.1749 121.623C86.7206 121.168 86.2663 120.714 85.8387 120.233C82.4714 116.759 79.0774 113.285 75.7101 109.837C59.5685 93.2412 34.2069 118.656 50.3218 135.225C58.6599 143.777 67.1583 155.75 78.436 160.266C90.8095 165.21 101.793 159.251 109.757 149.603C128.411 126.968 146.557 103.931 164.943 81.1083C171.063 73.4651 172.239 63.1494 164.943 55.6932Z" fill="white"/>
<path d="M138.834 12.9078C115.21 2.80595 50.2425 0.347287 17.2109 64.7802C48.2916 27.4994 81.9378 8.65862 138.834 12.9078Z" fill="#B7154A"/>
<path d="M86.374 206.046C141.24 202.091 179.215 169.968 205.459 131.244C201.209 155.376 184.907 177.558 165.131 191.187C145.355 204.817 114.675 213.128 86.0801 206.046" fill="#B7154A"/>
</svg>
