<svg width="58" height="64" viewBox="0 0 58 64" fill="none" xmlns="http://www.w3.org/2000/svg">
<g clip-path="url(#clip0_18_232)">
<path fill-rule="evenodd" clip-rule="evenodd" d="M2.62526 58.3749L2.74962 57.375C3.5826 57.1798 5.3678 57.6886 6.34419 57.8854L15.7087 59.7188C17.2487 60.0272 17.2936 59.8267 17.2936 60.8751C17.2936 61.8979 15.17 61.1605 13.9063 60.9063L4.3346 59.0313C3.45057 58.8538 2.62539 58.8773 2.62539 58.3751L2.62526 58.3749ZM8.592 30.375H22.8874C21.5841 33.1062 21.9997 33.0044 20.0791 35.8011C19.4913 36.6571 18.8712 37.281 18.1343 37.9704C17.4039 38.6538 16.4904 39.195 15.5418 39.4886C13.0326 40.265 11.3608 38.5796 10.3828 36.9491C9.54179 35.547 8.592 32.5525 8.592 30.3749V30.375ZM23.7576 27.75H8.46778C8.64484 26.9856 8.74156 24.3657 9.28937 21.9511C10.0922 18.4123 11.8399 12.9614 13.48 9.66511C13.7726 9.07706 14.4282 7.93854 14.5589 7.37494C14.8279 7.50475 24.1675 9.36189 24.7522 9.37488C25.2101 14.9087 25.1264 19.6077 24.2197 25.0894C24.162 25.438 24.0835 25.9585 23.9981 26.3666C23.899 26.8416 23.7577 27.1556 23.7577 27.7499L23.7576 27.75ZM5.98163 27.2499C5.98163 31.3228 6.17724 35.1787 8.36633 38.602C9.0834 39.7234 10.6286 41.4407 11.9485 41.7498C11.6934 42.8507 11.493 44.0157 11.2744 45.1969C11.0441 46.4413 10.8051 47.6668 10.6153 48.7841L9.33812 55.8748L3.51722 54.7261C0.165466 54.4041 -0.937202 58.6302 0.847613 60.4127C1.98751 61.5511 5.30472 61.8566 7.3376 62.2616C8.57729 62.5086 15.6733 63.9999 16.7966 63.9999C19.6885 63.9999 20.9397 60.1465 18.9466 58.2129C18.3741 57.6574 17.8134 57.487 16.87 57.3011L11.8243 56.375C12.5113 53.4098 13.1357 49.0467 13.7826 45.8441L14.4348 42.25C16.0245 42.25 17.1897 41.7255 18.1715 41.1326C20.0414 40.0031 21.8715 37.9567 22.9734 36.0862C24.9816 32.6771 26.2287 29.2364 26.8295 25.0887C27.2982 21.853 27.8102 16.1901 27.6119 12.4993C27.5804 11.9128 27.481 11.7339 27.487 10.9999C27.5198 6.96327 26.793 7.1556 24.929 6.82215C23.9461 6.64629 23.0478 6.44457 22.1314 6.26035C21.32 6.09709 14.1605 4.63065 13.7153 4.68481C12.6822 4.8105 11.54 7.82919 11.0779 8.74953C10.1463 10.6046 8.88907 14.0593 8.23468 16.0155C7.26865 18.903 5.98175 24.0967 5.98175 27.2501L5.98163 27.2499Z" fill="white"/>
<path fill-rule="evenodd" clip-rule="evenodd" d="M39.9176 60.875C39.9176 59.8266 39.9625 60.0269 41.5025 59.7187L53.355 57.3803C53.7438 57.2946 54.6512 56.9991 54.6813 58.1456C54.6996 58.8472 53.938 58.8214 53.2914 58.9482L41.441 61.2835C40.9068 61.3911 39.9176 61.6808 39.9176 60.875ZM33.0807 26.625H48.4949C48.4949 30.3875 48.5557 34.1488 46.4582 37.3268C45.857 38.2378 44.9718 39.1455 43.8885 39.4929C38.7552 41.1392 34.791 32.6453 33.621 28.5814C33.4655 28.0418 33.2673 27.0162 33.0806 26.6249L33.0807 26.625ZM32.2106 9.49995C32.7436 9.24278 36.4588 8.60958 37.3591 8.42716L42.5281 7.37496L44.234 11.1596C44.5242 11.8423 44.7803 12.3851 45.0515 13.0876C45.8877 15.2541 48.1221 21.8213 48.1221 24.125H32.9565C32.3937 24.125 32.4335 21.9967 32.2817 20.9285C32.1056 19.6891 32.0837 18.4763 32.0892 17.1221C32.0925 16.2893 31.9443 16.0268 31.9528 15.2493C31.9608 14.5183 32.0928 14.2222 32.0879 13.3767C32.0795 11.9045 32.2106 10.9025 32.2106 9.50008V9.49995ZM29.4758 13.125C29.4758 18.3369 29.4353 20.2561 30.3107 25.5354C30.6865 27.8026 31.4814 31.0302 32.4578 33.0012C33.4017 34.9065 33.7259 35.7336 35.0515 37.518C36.8289 39.9105 39.4617 42.2499 42.6524 42.2499C42.664 42.7776 42.8425 43.3932 42.9528 43.9478L43.9886 49.2811C44.4603 51.6525 44.8557 54.0811 45.3871 56.3749L40.3414 57.301C35.6077 58.2342 36.8958 63.9999 40.5391 63.9999C41.2277 63.9999 44.276 63.3623 45.1905 63.1771C46.6919 62.8728 54.7296 61.4203 55.4946 61.0386C58.4783 59.5498 57.3544 54.4495 53.8184 54.7251C53.0089 54.7883 48.302 55.6682 47.8734 55.875L47.2208 52.4063C46.6016 49.293 45.8104 44.6495 45.1386 41.75C46.0269 41.542 46.7808 40.7693 47.423 40.1721L47.551 40.0508C48.3163 39.2855 49.066 38.1148 49.5253 37.0361C50.9752 33.6308 51.1053 31.4783 51.1053 27.625C51.1053 21.4452 47.923 12.6002 45.1385 6.99996C43.8295 4.36733 43.9141 4.48286 41.2954 5.01031C40.4655 5.17755 30.8416 6.93152 30.3741 7.27822C29.449 7.96442 29.4758 11.8924 29.4758 13.1248V13.125Z" fill="white"/>
<path fill-rule="evenodd" clip-rule="evenodd" d="M23.5089 17V13C23.5089 12.113 23.0348 11.5 22.1415 11.5C20.4179 11.5 20.8971 14.9883 20.8985 17.375C20.8995 19.1991 20.3411 20.9469 21.3176 21.5819C21.9034 21.963 22.5631 21.8467 22.9877 21.3509C23.4784 20.7779 23.509 18.1474 23.509 16.9999L23.5089 17Z" fill="#D8B067"/>
<path fill-rule="evenodd" clip-rule="evenodd" d="M41.5336 15.125L43.0478 20.2273C43.5842 21.8943 45.5114 21.2504 45.5114 20C45.5114 19.0819 44.6128 16.4832 44.3028 15.5904C44.0476 14.8554 43.8799 14.1374 43.0763 13.9407C42.3819 13.7708 41.5336 14.3721 41.5336 15.125Z" fill="#D8B067"/>
<path fill-rule="evenodd" clip-rule="evenodd" d="M27.1138 1.12501V5.62506C27.1138 6.853 29.6 7.03851 29.6 5.3751V1.00009C29.6 0.403686 28.984 0.0266233 28.3653 0.00012207H28.2272C27.6518 0.0246936 27.1138 0.363935 27.1138 1.12514V1.12501Z" fill="#D8B067"/>
<path fill-rule="evenodd" clip-rule="evenodd" d="M21.52 1.50006C21.52 2.09338 22.3575 3.32234 22.6388 3.75009C23.0752 4.41365 23.3435 5.37502 24.3791 5.37502C24.9438 5.37502 25.6221 4.78119 25.6221 4.25001C25.6221 3.58812 23.929 0.25 22.8874 0.25C22.5238 0.25 22.19 0.385465 21.9793 0.586797C21.821 0.737956 21.52 1.25537 21.52 1.49993V1.50006Z" fill="#D8B067"/>
<path fill-rule="evenodd" clip-rule="evenodd" d="M31.3403 4.00004C31.3403 5.32652 32.8997 6.13313 33.8821 4.43101C34.205 3.87152 34.4594 3.50424 34.7822 2.96122C35.045 2.51919 35.507 1.92343 35.3769 1.32394C35.2384 0.686105 34.7848 0.250122 34.075 0.250122C32.9319 0.250122 31.3401 3.75291 31.3401 4.00017L31.3403 4.00004Z" fill="#D8B067"/>
<path fill-rule="evenodd" clip-rule="evenodd" d="M20.0283 25.5C20.0283 27.2532 22.779 27.1345 22.5965 25.417C22.4179 23.7368 20.0283 23.9367 20.0283 25.5Z" fill="#D8B067"/>
<path fill-rule="evenodd" clip-rule="evenodd" d="M39.6689 10.5C39.6689 12.3129 42.1551 12.3129 42.1551 10.5C42.1551 8.89307 39.6689 8.88201 39.6689 10.5Z" fill="#D8B067"/>
</g>
<defs>
<clipPath id="clip0_18_232">
<rect width="57.2121" height="64" fill="white"/>
</clipPath>
</defs>
</svg>
